<?xml version="1.0"?>
<svg xmlns="http://www.w3.org/2000/svg" height="512px" viewBox="0 0 58 60" width="512px" class=""><g><g id="011---Umbrella-Funding" fill="none"><g id="Icons" transform="translate(1 4)"><path id="Shape" d="m55.08 50.99c.0022349 1.103224-.8868088 2.0012029-1.99 2.01l-31.46.11c.7737904-.4374535 1.2852427-1.2251648 1.37-2.11 0-4.01.01-4.06-.01-4.16-.148-1.661-2.36-2.68-3.99-3.17v-2.34c1.64-.48 4-1.61 4-3.33v-4c0-1.12-1.04-2.14-2.73-2.87 16.2-.042 19.689-.083 32.72-.13 1.103224-.0022349 2.0012029.8868088 2.01 1.99z" fill="#549414" data-original="#549414" class="" data-old_color="#549414" style="fill:#D7DCDD"/><path id="Shape" d="m52.08 50.99c.0022349 1.103224-.8868088 2.0012029-1.99 2.01l-28.44.1c.7667579-.4366714 1.2710684-1.2211545 1.35-2.1v-4c0-1.708-2.27-2.791-3.9-3.3-.143-.048-.1.246-.1-2.37 1.647-.478 4-1.623 4-3.33v-4c0-1.12-1.04-2.14-2.73-2.87 18.735-.049 26.723-.12 29.94-.12 1.0120222.1113971 1.7809165.9619058 1.79 1.98.071 15.51.053 11.362.08 18z" fill="#60a917" data-original="#60A917" class="" data-old_color="#60a917" style="fill:#C9D3DB"/><path id="Shape" d="m51.06 46.01c-.7956508.0026477-1.5576616.3212604-2.1183963.8857459-.5607347.5644854-.8742603 1.3286033-.8716037 2.1242541-14.484.06-8.941.063-24.14 0 .0120815-.8275053-.3299595-1.6207492-.94-2.18-.2461629-1.0833801-1.0087169-1.9767644-2.04-2.39l.02-3.92c1.27-.69 2.03-1.57 2.03-2.53v-.77c.6007566-.5444453.9544803-1.3096433.98-2.12 25.616-.085 23.99-.15 24.04 0 .0445808 1.6218198 1.3776009 2.910406 3 2.9z" fill="#a4c400" data-original="#A4C400" class="" data-old_color="#a4c400" style="fill:#E7ED27"/><path id="Shape" d="m41.04 42.05c.024 4.557-3.675 7.971-7.5 6.8-2.800077-1.0423839-4.6147521-3.7643967-4.5-6.75-.1558571-3.0065032 1.670379-5.7620905 4.5-6.79 3.601-1.149 7.476 2.026 7.5 6.74z" fill="#00695c" data-original="#00695C" class="" data-old_color="#00695c" style="fill:#FBC988"/><path id="Shape" d="m38.04 42.05c.1560775 3.0089346-1.6694502 5.7675099-4.5 6.8-2.800077-1.0423839-4.6147521-3.7643967-4.5-6.75-.1558571-3.0065032 1.670379-5.7620905 4.5-6.79 2.8017815 1.0345075 4.6185931 3.7556876 4.5 6.74z" fill="#009688" data-original="#009688" class="" data-old_color="#009688" style="fill:#FBC988"/><g fill="#f0c419"><path id="Shape" d="m28.64 22.91c-.08.12.028.09-.64.09v-.01c.2153864-.006326.4296837-.0331132.64-.08z" data-original="#000000"/><path id="Shape" d="m44.79 4.99c-.66-.43-1.33-.85-2.03-1.23.6971103.37526952 1.3746547.78580132 2.03 1.23z" data-original="#000000"/><path id="Shape" d="m11.21 4.99c.6553453-.44419868 1.3328897-.85473048 2.03-1.23-.7.38-1.37.8-2.03 1.23z" data-original="#000000"/><path id="Shape" d="m28 22.99v.01h-.58c-.113-.17-.134-.043.58-.01z" data-original="#000000"/></g><path id="Shape" d="m23 51c0 1.469-1.737 2.481-3.11 3.02-5.78 2.25-14.89.39-14.89-3.02v-3.67c-2.41-.72-4-1.94-4-3.33 0-4.31-.04-4.24.12-4.66.52-1.37 2.44-2.24 3.88-2.67 0-2.88-.04-2.87.11-3.31 1.12-3.1 9.85-4.54 15.16-2.23 1.69.73 2.73 1.75 2.73 2.87v4c0 1.72-2.36 2.85-4 3.33v2.34c1.647.495 3.843 1.516 3.99 3.17.02.1.01.15.01 4.16z" fill="#f57c00" data-original="#F57C00" class="active-path" data-old_color="#f57c00" style="fill:#F57C00"/><path id="Shape" d="m23 47c0 2.21-4.03 4-9 4-.52 0-1.03-.02-1.52-.06 4.27-.31 7.52-1.96 7.52-3.94-.0702783-.8421455-.5384378-1.6001181-1.26-2.04.2138091-.3942915.3043815-.8436701.26-1.29.03.01.07.02.1.03 2.35.72 3.9 1.93 3.9 3.3z" fill="#fdd834" data-original="#FDD834" class=""/><path id="Shape" d="m18.33 41.51c-2.009 2.224-7.1 2.676-10.08 2.41-7.77-.677-9.975-5.241-3.25-7.25v1.33c0 2.21 4.03 4 9 4 1.4575418.0067957 2.9108356-.1576648 4.33-.49z" fill="#ffeb3a" data-original="#FFEB3A" class="" data-old_color="#ffeb3a" style="fill:#FFEB3A"/><path id="Shape" d="m23 34c0 3.889-11.351 5.491-16.36 2.3-.90243033-.4376465-1.52032915-1.3042119-1.64-2.3 0-1.98 3.24-3.63 7.5-3.94.49-.04.99-.06 1.5-.06 4.97 0 9 1.79 9 4z" fill="#fdd834" data-original="#FDD834" class=""/><path id="Shape" d="m20 47c0 1.98-3.25 3.63-7.52 3.94-2.465-.187-6.956-1.183-7.44-3.6 4.917 1.432 12.142.431 13.7-2.38.7215622.4398819 1.1897217 1.1978545 1.26 2.04z" fill="#ffeb3a" data-original="#FFEB3A" class="" data-old_color="#ffeb3a" style="fill:#FFEB3A"/><path id="Shape" d="m20 34c0 1.98-3.23 3.62-7.48 3.94-2.0618695-.0755495-4.07666776-.6375-5.88-1.64-.90243033-.4376465-1.52032915-1.3042119-1.64-2.3 0-1.98 3.24-3.63 7.5-3.94 4.26.31 7.5 1.96 7.5 3.94z" fill="#ffeb3a" data-original="#FFEB3A" class="" data-old_color="#ffeb3a" style="fill:#FFEB3A"/><path id="Shape" d="m42 25c0-2.76-3.13-5-7-5s-7 2.24-7 5v-25c7.73 0 14 11.19 14 25z" fill="#02a9f4" data-original="#02A9F4" class="" data-old_color="#02a9f4" style="fill:#E5EB2F"/><path id="Shape" d="m56 25c0-2.76-3.13-5-7-5s-7 2.24-7 5c0-13.81-6.27-25-14-25 15.46 0 28 11.19 28 25z" fill="#ffdc00" data-original="#FFDC00" class="" data-old_color="#ffdc00" style="fill:#2BF7F7"/><path id="Shape" d="m28 0c1.0276344.00430257 2.0453033.20173034 3 .582 11.039 2.153 19.64 10.118 21.581 20.127 2.046.873 3.419 2.466 3.419 4.291 0-13.81-12.54-25-28-25z" fill="#fec108" data-original="#FEC108" class="" data-old_color="#fec108" style="fill:#1EEBEB"/><path id="Shape" d="m28 0c-7.73 0-14 11.19-14 25 0-2.76-3.13-5-7-5s-7 2.24-7 5c0-13.81 12.54-25 28-25z" fill="#a4c400" data-original="#A4C400" class="" data-old_color="#a4c400" style="fill:#E7ED27"/><path id="Shape" d="m28 0v25c0-2.76-3.13-5-7-5s-7 2.24-7 5c0-13.81 6.27-25 14-25z" fill="#f44335" data-original="#F44335" class="" data-old_color="#f44335" style="fill:#2BF7F7"/></g><path id="Shape" d="m29 0c-.5522847 0-1 .44771525-1 1v2.023c-15.529.477-28 11.941-28 25.977 0 .5522847.44771525 1 1 1s1-.4477153 1-1c0-2.168 2.748-4 6-4s6 1.832 6 4c0 .5522847.4477153 1 1 1s1-.4477153 1-1c0-2.168 2.748-4 6-4s6 1.832 6 4v5.075h-6.667c-5.872-2.337-16.333-.775-16.333 3.925v1.956c-2.545.915-4 2.361-4 4.044v4c0 1.7 1.545 3.154 4 4.048v2.952c0 5.2 12.721 6.556 17.992 3.07h31.108c1.6569868-.0511505 2.9663692-1.422418 2.941-3.08v-18.009c-.0162157-.7907707-.3473909-1.5423604-.9200223-2.087956-.5726313-.5455956-1.3393473-.8400623-2.1299777-.818044h-23.991v-5.075c0-2.168 2.748-4 6-4s6 1.832 6 4c0 .5522847.4477153 1 1 1s1-.4477153 1-1c0-2.168 2.748-4 6-4s6 1.832 6 4c0 .5522847.4477153 1 1 1s1-.4477153 1-1c0-14.036-12.471-25.5-28-25.977v-2.023c0-.55228475-.4477153-1-1-1zm8.063 51.953v-1.063c1.3707005-.4934531 2.187263-1.9018944 1.9344417-3.3366059s-1.5016326-2.4791977-2.9584417-2.4743941c-.5522847.0046944-1.0038056-.4392153-1.0085-.9915s.4392153-1.0038056.9915-1.0085c.5494739.0052581.9956101.4456406 1.008.995.0043518.5504721.4495279.9956482 1 1 1.658-.008 1.193-3.033-1.02-3.811v-1.063c2.281.547 4.012 2.963 4.024 5.862s-1.692 5.321-3.971 5.891zm-2.048-11.748v1.062c-1.373142.4898212-2.1935983 1.8977612-1.9427902 3.3339154.2508081 1.4361543 1.4999072 2.4826698 2.9577902 2.4780846h.018c.5522847-.0024853 1.0020147.4432153 1.0044999.9955.0024853.5522847-.4432152 1.0020147-.9954999 1.0045-.5515468-.0053175-.9987412-.448523-1.009-1 0-.5522847-.4477153-1-1-1-1.66.008-1.2 3.033 1.017 3.811v1.064c-2.28-.547-4.011-2.963-4.024-5.861s1.696-5.319 3.974-5.888zm5.636-.125h7.49c.3794704 1.3974648 1.4916284 2.4762581 2.9 2.813v6.251c-1.4130012.3886352-2.504533 1.5123159-2.852 2.936h-7.532c3.1786519-3.3694317 3.1760197-8.6337486-.006-12zm-9.221 12h-6.43v-1.08c0-1.654-1.4-3.06-4-4.031v-.921c2.455-.894 4-2.343 4-4.048v-1.92h6.419c-3.1777507 3.3705577-3.1729247 8.6352738.011 12zm-24.43-10.613c.161-.037.321-.079.481-.108 4 2.253 11.726 2.221 15.519-.3v.941c0 1.223-3.117 3-8 3s-8-1.777-8-3zm13.8 7.567c1.36.585 2.2 1.313 2.2 1.966 0 1.223-3.117 3-8 3-2.0382208.0382772-4.0634398-.3323556-5.956-1.09.63.058 1.282.09 1.956.09 4.988 0 8.9-1.645 9.8-3.966zm-5.8-14.034c4.883 0 8 1.777 8 3 0 .373-.222.528-.29.689-.874 1.111-3.691 2.311-7.71 2.311-4.883 0-8-1.777-8-3s3.117-3 8-3zm-9.99 7.1c.088 2.436 3.32 4.34 7.87 4.8-1.1766987.1288022-2.3634121.1381833-3.542.028-3.791-.339-6.338-1.786-6.338-2.928 0-.547.639-1.282 2.01-1.9zm-2.01 5.9v-.928c3.915 2.582 12.17 2.548 16 0v.928c0 1.223-3.117 3-8 3s-8-1.777-8-3zm4 7v-.937c3.9 2.578 12.09 2.595 16 0v.937c-.0737964.470423-.347699.885836-.751 1.139-.1625458.061324-.3057999.1648812-.415.3-2.0975225 1.121827-4.457422 1.6608675-6.834 1.561-4.883 0-8-1.777-8-3zm48.04-18.01v18c.028221.5579213-.3930364 1.0368244-.95 1.08h-29.3c.2155007-.6398166.2872044-1.3192949.21-1.99h24.07c.2662593.0000048.5215268-.1061753.7092366-.2950113.1877098-.1888361.292361-.4447342.2907634-.7109887-.0223454-1.1148538.8612306-2.0377794 1.976-2.064.5499402-.0032997.9940099-.4500499.994-1v-8c.0000537-.2687184-.1080441-.5261508-.2999286-.7142729-.1918845-.188122-.4514068-.2911015-.7200714-.2857271-.5242182.0131434-1.0318631-.1842148-1.409545-.547992s-.5939346-.8636656-.600455-1.388008c-.0032997-.5499402-.4500499-.9940099-1-.994h-24.01c.011682-.7319463-.2439536-1.4430326-.719-2h29.709c.540206-.0355714 1.0084297.3702225 1.05.91zm-52.6-12.3c1.884-9.225 9.73-16.63 19.849-18.94-4.283 3.73-7.4 10.913-8.127 19.427-3.3795264-2.7155199-8.13418013-2.911772-11.726-.484zm13.759.19c1.001-10.68 5.845-18.961 11.801-19.802v19.967c-3.4626853-2.6633615-8.2655039-2.7292985-11.8-.162zm39.369-.19c-3.5919129-2.4274443-8.3463539-2.231201-11.726.484-.727-8.514-3.844-15.7-8.127-19.427 10.115 2.313 17.961 9.718 19.849 18.946zm-13.759.19c-3.5344102-2.5639592-8.3332559-2.5017369-11.8.153v-19.955c5.947.841 10.791 9.122 11.796 19.805z" fill="#000" data-original="#000" class="" style="fill:#000000" data-old_color="#000"/></g></g> </svg>
