<?xml version="1.0"?>
<svg xmlns="http://www.w3.org/2000/svg" viewBox="0 0 64 64" width="512px" height="512px" class=""><g><g id="Fill_Outline" data-name="Fill Outline"><g id="Flat"><rect x="52" y="17" width="6" height="4" style="fill:#EDEE20" data-original="#FCBC04" class="active-path" data-old_color="#FCBC04"/><circle cx="55" cy="13" r="6" style="fill:#F1F24A" data-original="#F9E109" class="" data-old_color="#F9E109"/><path d="M49,36v2a2,2,0,0,0,2,2h8a2,2,0,0,0,2-2V23a4,4,0,0,0-4-4H53a4,4,0,0,0-4,4v9" style="fill:#99DBF8" data-original="#4891D3" class="" data-old_color="#4891D3"/><path d="M53,38a4,4,0,0,0,4-4V26H53v7a1,1,0,0,1-1,1H49v4Z" style="fill:#42B0D6" data-original="#2D72BC" class="" data-old_color="#2D72BC"/><rect x="51" y="40" width="8" height="17" style="fill:#99DBF8" data-original="#4891D3" class="" data-old_color="#4891D3"/><path d="M47,57H59a0,0,0,0,1,0,0v2a2,2,0,0,1-2,2H47a0,0,0,0,1,0,0V57A0,0,0,0,1,47,57Z" transform="translate(106 118) rotate(180)" style="fill:#F24F08" data-original="#A1D51C" class="" data-old_color="#A1D51C"/><path d="M54,49V42h5V40H51V57h8V54.91A6,6,0,0,1,54,49Z" style="fill:#42B0D6" data-original="#2D72BC" class="" data-old_color="#2D72BC"/><polygon points="49 34 53 34 53 24 49 34" style="fill:#42B0D6" data-original="#2D72BC" class="" data-old_color="#2D72BC"/><path d="M53,24v7a1,1,0,0,1-1,1H45a2,2,0,0,0-2,2h0a2,2,0,0,0,2,2h8a4,4,0,0,0,4-4V24" style="fill:#99DBF8" data-original="#4891D3" class="" data-old_color="#4891D3"/><path d="M55,22V32a4,4,0,0,1-4,4h2a4,4,0,0,0,4-4V24a2,2,0,0,0-2-2Z" style="fill:#57b7eb" data-original="#57B7EB" class=""/><path d="M58,18A6,6,0,0,1,54.66,7a6,6,0,1,0,3.68,11Z" style="fill:#EDEE20" data-original="#FCBC04" class="active-path" data-old_color="#FCBC04"/><rect x="47" y="59" width="12" height="2" style="fill:#DC9D2F" data-original="#7AB92D" class="" data-old_color="#7AB92D"/><path d="M57,19H55a4,4,0,0,1,4,4V38a2,2,0,0,1-2,2h2a2,2,0,0,0,2-2V23A4,4,0,0,0,57,19Z" style="fill:#57b7eb" data-original="#57B7EB" class=""/><rect x="6" y="17" width="6" height="4" style="fill:#EDEE20" data-original="#FCBC04" class="active-path" data-old_color="#FCBC04"/><circle cx="9" cy="13" r="6" style="fill:#F1F24A" data-original="#F9E109" class="" data-old_color="#F9E109"/><path d="M15,36v2a2,2,0,0,1-2,2H5a2,2,0,0,1-2-2V23a4,4,0,0,1,4-4h4a4,4,0,0,1,4,4v9" style="fill:#99DBF8" data-original="#4891D3" class="" data-old_color="#4891D3"/><path d="M11,19H9a4,4,0,0,1,4,4V38a2,2,0,0,1-2,2h2a2,2,0,0,0,2-2V23A4,4,0,0,0,11,19Z" style="fill:#57b7eb" data-original="#57B7EB" class=""/><path d="M11,34H10a1,1,0,0,1-1-1V25H7L5.53,34.54A3,3,0,0,0,8.5,38H15V34Z" style="fill:#42B0D6" data-original="#2D72BC" class="" data-old_color="#2D72BC"/><rect x="13" y="34" width="2" height="4" style="fill:#99DBF8" data-original="#4891D3" class="" data-old_color="#4891D3"/><rect x="5" y="40" width="8" height="17" transform="translate(18 97) rotate(180)" style="fill:#99DBF8" data-original="#4891D3" class="" data-old_color="#4891D3"/><path d="M5,57H15a2,2,0,0,1,2,2v2a0,0,0,0,1,0,0H5a0,0,0,0,1,0,0V57A0,0,0,0,1,5,57Z" style="fill:#F24F08" data-original="#A1D51C" class="" data-old_color="#A1D51C"/><path d="M8,49V42h5V40H5V57h8V54.91A6,6,0,0,1,8,49Z" style="fill:#42B0D6" data-original="#2D72BC" class="" data-old_color="#2D72BC"/><path d="M11,24v7a1,1,0,0,0,1,1h7a2,2,0,0,1,2,2h0a2,2,0,0,1-2,2H11a4,4,0,0,1-4-4V24" style="fill:#99DBF8" data-original="#4891D3" class="" data-old_color="#4891D3"/><path d="M19,32H12a1,1,0,0,1-1-1V24a1,1,0,0,0-1-1v9a1,1,0,0,0,1,1h7a2,2,0,0,1,2,2,2,2,0,0,1-.18.82A2,2,0,0,0,19,32Z" style="fill:#57b7eb" data-original="#57B7EB" class=""/><path d="M12,18A6,6,0,0,1,8.66,7a6,6,0,1,0,3.68,11Z" style="fill:#EDEE20" data-original="#FCBC04" class="active-path" data-old_color="#FCBC04"/><rect x="5" y="59" width="12" height="2" style="fill:#DC9D2F" data-original="#7AB92D" class="" data-old_color="#7AB92D"/><polyline points="39 27 39 12.6 44 12.6 32 3 20 12.6 25 12.6 25 27" style="fill:#57b7eb" data-original="#57B7EB" class=""/><path d="M32,15V3L20,12.6h5V27H39V25.9A12,12,0,0,1,32,15Z" style="fill:#99DBF8" data-original="#4891D3" class="" data-old_color="#4891D3"/><path d="M26.47,31.05a3,3,0,0,1,2.75.95H32V27H21a2,2,0,0,0-2,2v3a2,2,0,0,1,0,4v3a2,2,0,0,0,2,2H32V36H29.22A3,3,0,0,1,27,37a3,3,0,0,1-.53-5.95Z" style="fill:#EDEE20" data-original="#FCBC04" class="active-path" data-old_color="#FCBC04"/><path d="M43,34a2,2,0,0,1,2-2V29a2,2,0,0,0-2-2H32v5H29.22a3,3,0,0,0-2.75-.95A3,3,0,0,0,27,37a3,3,0,0,0,2.22-1H32v5H43a2,2,0,0,0,2-2V36A2,2,0,0,1,43,34Z" style="fill:#F24F08" data-original="#A1D51C" class="" data-old_color="#A1D51C"/><path d="M32,41V36H29.22A3,3,0,0,1,27,37a3,3,0,0,1-2.95-3.54A3,3,0,0,1,24.76,32l-.29,0A3,3,0,0,0,25,38a3,3,0,0,0,2.22-1H30v4Z" style="fill:#F68655" data-original="#E59730" class="" data-old_color="#E59730"/><rect x="30" y="27" width="2" height="5" style="fill:#F68655" data-original="#E59730" class="" data-old_color="#E59730"/><path d="M43,27H35v1a4,4,0,0,0,4,4h6V29A2,2,0,0,0,43,27Z" style="fill:#EAF444" data-original="#C4F236" class="" data-old_color="#C4F236"/><path d="M19,29v3a2,2,0,0,1,2,2V27A2,2,0,0,0,19,29Z" style="fill:#F68655" data-original="#E59730" class="" data-old_color="#E59730"/><path d="M26,39a5,5,0,0,1-5-5,2,2,0,0,1-2,2v3a2,2,0,0,0,2,2H32V39Z" style="fill:#F68655" data-original="#E59730" class="" data-old_color="#E59730"/></g><g id="Outline_copy" data-name="Outline copy"><path d="M45,38a1,1,0,0,0-1,1,1,1,0,0,1-1,1H33V36a1,1,0,0,0-1-1H29.22a1,1,0,0,0-.74.33,2,2,0,0,1-3,0A2,2,0,0,1,25,33.63,2,2,0,0,1,26.64,32a2,2,0,0,1,1.84.64,1,1,0,0,0,.74.33H32a1,1,0,0,0,1-1V28H43a1,1,0,0,1,1,1,1,1,0,0,0,2,0,3,3,0,0,0-3-3H21a3,3,0,0,0-3,3,1,1,0,0,0,2,0,1,1,0,0,1,1-1H31v3H29.63a4,4,0,0,0-3.34-.94,4,4,0,0,0-2.35,6.51,4,4,0,0,0,5.69.43H31v3H21a1,1,0,0,1-1-1,1,1,0,0,0-2,0,3,3,0,0,0,3,3H43a3,3,0,0,0,3-3A1,1,0,0,0,45,38Z" style="fill:#000000" data-original="#39519D" class="" data-old_color="#39519D"/><path d="M59.27,18.54a7,7,0,1,0-8.54,0A5,5,0,0,0,48,23v5a1,1,0,0,0,2,0V23a3,3,0,0,1,3-3h4a3,3,0,0,1,3,3V38a1,1,0,0,1-1,1H51a1,1,0,0,1-1-1V37h3a5,5,0,0,0,5-5V24a1,1,0,0,0-2,0v8a3,3,0,0,1-3,3H45a1,1,0,0,1,0-2h7a2,2,0,0,0,2-2V24a1,1,0,0,0-2,0v7H45a3,3,0,0,0,0,6h3v1a3,3,0,0,0,2,2.83V56a4,4,0,0,0-4,4v1a1,1,0,0,0,1,1H59a1,1,0,0,0,1-1V40.83A3,3,0,0,0,62,38V23A5,5,0,0,0,59.27,18.54ZM50,13a5,5,0,1,1,5,5A5,5,0,0,1,50,13Zm2,28h6V56H52Zm6,19H48a2,2,0,0,1,2-2h8Z" style="fill:#000000" data-original="#39519D" class="" data-old_color="#39519D"/><path d="M14,56V40.83A3,3,0,0,0,16,38V37h3a3,3,0,0,0,0-6H12V24a1,1,0,0,0-2,0v7a2,2,0,0,0,2,2h7a1,1,0,0,1,0,2H11a3,3,0,0,1-3-3V24a1,1,0,0,0-2,0v8a5,5,0,0,0,5,5h3v1a1,1,0,0,1-1,1H5a1,1,0,0,1-1-1V23a3,3,0,0,1,3-3h4a3,3,0,0,1,3,3v5a1,1,0,0,0,2,0V23a5,5,0,0,0-2.73-4.46,7,7,0,1,0-8.54,0A5,5,0,0,0,2,23V38a3,3,0,0,0,2,2.83V61a1,1,0,0,0,1,1H17a1,1,0,0,0,1-1V60A4,4,0,0,0,14,56ZM4,13a5,5,0,1,1,5,5A5,5,0,0,1,4,13Zm8,28V56H6V41ZM6,60V58h8a2,2,0,0,1,2,2Z" style="fill:#000000" data-original="#39519D" class="" data-old_color="#39519D"/><path d="M32,12a1.5,1.5,0,0,1,1.5,1.5,1,1,0,0,0,2,0A3.51,3.51,0,0,0,33,10.15V9a1,1,0,0,0-2,0v1.15A3.5,3.5,0,0,0,32,17a1.5,1.5,0,1,1-1.5,1.5,1,1,0,0,0-2,0A3.51,3.51,0,0,0,31,21.85V23a1,1,0,0,0,2,0V21.85A3.5,3.5,0,0,0,32,15a1.5,1.5,0,0,1,0-3Z" style="fill:#000000" data-original="#39519D" class="" data-old_color="#39519D"/><path d="M20,13.6h4V22a1,1,0,0,0,2,0V12.6a1,1,0,0,0-1-1H22.85L32,4.28l9.15,7.32H39a1,1,0,0,0-1,1V22a1,1,0,0,0,2,0V13.6h4a1,1,0,0,0,.94-.67,1,1,0,0,0-.32-1.11l-12-9.6a1,1,0,0,0-1.25,0l-12,9.6a1,1,0,0,0-.32,1.11A1,1,0,0,0,20,13.6Z" style="fill:#000000" data-original="#39519D" class="" data-old_color="#39519D"/><path d="M41,45a1,1,0,0,0-1,1v4a1,1,0,0,0,2,0V46A1,1,0,0,0,41,45Z" style="fill:#000000" data-original="#39519D" class="" data-old_color="#39519D"/><path d="M32,44a1,1,0,0,0-1,1V56a1,1,0,0,0,2,0V45A1,1,0,0,0,32,44Z" style="fill:#000000" data-original="#39519D" class="" data-old_color="#39519D"/><path d="M27,47a1,1,0,0,0-1,1v4a1,1,0,0,0,2,0V48A1,1,0,0,0,27,47Z" style="fill:#000000" data-original="#39519D" class="" data-old_color="#39519D"/><path d="M22,44a1,1,0,0,0-1,1v6a1,1,0,0,0,2,0V45A1,1,0,0,0,22,44Z" style="fill:#000000" data-original="#39519D" class="" data-old_color="#39519D"/><path d="M37,50a1,1,0,0,0-1,1v4a1,1,0,0,0,2,0V51A1,1,0,0,0,37,50Z" style="fill:#000000" data-original="#39519D" class="" data-old_color="#39519D"/></g></g></g> </svg>
