<?xml version="1.0" standalone="no"?>
<!DOCTYPE svg PUBLIC "-//W3C//DTD SVG 20010904//EN"
 "http://www.w3.org/TR/2001/REC-SVG-20010904/DTD/svg10.dtd">
<svg version="1.0" xmlns="http://www.w3.org/2000/svg"
 width="863.000000pt" height="863.000000pt" viewBox="0 0 863.000000 863.000000"
 preserveAspectRatio="xMidYMid meet">
<metadata>
Created by potrace 1.11, written by Peter Selinger 2001-2013
</metadata>
<g transform="translate(0.000000,863.000000) scale(0.100000,-0.100000)"
fill="#000000" stroke="none">
<path d="M7677 8588 c13 -65 7 -195 -13 -298 -11 -58 -79 -196 -129 -259 -43
-57 -131 -147 -184 -189 -24 -18 -22 -19 175 -19 210 1 258 -3 344 -29 111
-33 195 -107 318 -278 l42 -59 0 189 c0 104 2 205 5 224 13 102 19 130 40 186
13 34 58 115 100 179 42 64 75 118 73 120 -2 2 -29 -2 -61 -11 -130 -34 -295
-19 -412 36 -78 37 -177 112 -242 184 -28 31 -54 56 -57 56 -3 0 -3 -14 1 -32z"/>
<path d="M4375 7771 c-426 -103 -652 -563 -460 -940 41 -81 54 -99 129 -173
259 -259 681 -257 937 3 50 51 78 91 112 161 25 51 49 111 53 133 4 22 9 47
11 55 10 41 8 172 -3 230 -49 255 -248 467 -499 530 -79 19 -201 20 -280 1z"/>
<path d="M3528 7645 c-2 -1 -28 -5 -58 -9 -60 -6 -101 -13 -140 -22 -14 -3
-38 -8 -55 -11 -16 -2 -48 -9 -70 -15 -22 -5 -49 -12 -59 -14 -44 -8 -257 -69
-341 -96 -165 -55 -381 -144 -505 -208 -106 -54 -218 -115 -242 -132 -14 -10
-29 -18 -32 -18 -4 0 -19 -9 -34 -19 -15 -10 -59 -39 -97 -64 -321 -205 -671
-529 -925 -857 -297 -383 -524 -834 -659 -1310 -50 -180 -91 -367 -106 -490
-12 -99 -17 -136 -21 -160 -10 -59 -18 -268 -18 -430 0 -214 14 -374 50 -580
2 -14 7 -41 10 -60 11 -74 85 -360 122 -475 85 -261 191 -498 335 -750 78
-137 185 -291 210 -302 35 -16 70 8 146 99 34 42 84 94 111 117 54 45 76 97
64 148 -7 28 -38 90 -73 148 -224 367 -397 845 -446 1231 -4 27 -8 60 -11 74
-18 108 -24 441 -11 630 7 101 32 318 41 350 3 8 7 32 10 52 22 149 98 413
172 601 153 385 361 713 657 1032 501 541 1087 869 1795 1005 88 17 179 37
201 45 91 32 132 87 151 200 8 48 26 96 56 152 50 92 54 120 22 132 -20 8
-242 13 -250 6z"/>
<path d="M5295 7432 c61 -149 80 -285 59 -407 -21 -121 -18 -124 168 -217 159
-80 374 -215 488 -307 137 -111 135 -111 431 -15 131 43 239 81 239 85 0 7
-148 144 -245 225 -108 92 -295 227 -397 289 -264 158 -461 256 -683 340 -59
22 -66 23 -60 7z"/>
<path d="M7586 7345 c-50 -131 -72 -178 -122 -257 -68 -106 -160 -209 -279
-313 -101 -88 -350 -226 -546 -303 -84 -33 -286 -97 -369 -117 -182 -44 -405
-81 -670 -110 -30 -4 -66 -8 -80 -10 -14 -2 -59 -6 -100 -10 -41 -3 -91 -8
-110 -10 -19 -2 -69 -7 -110 -10 -41 -3 -86 -8 -100 -10 -14 -2 -59 -7 -100
-10 -41 -4 -82 -8 -90 -10 -8 -2 -44 -7 -80 -10 -36 -3 -81 -8 -100 -10 -19
-3 -57 -7 -85 -10 -27 -3 -66 -7 -85 -10 -19 -2 -60 -7 -90 -10 -97 -10 -254
-30 -320 -40 -14 -2 -50 -6 -80 -10 -30 -3 -80 -10 -110 -15 -30 -5 -75 -12
-100 -15 -25 -3 -70 -10 -100 -15 -79 -13 -120 -19 -165 -26 -22 -3 -119 -21
-215 -40 -211 -42 -213 -43 -270 -55 -25 -6 -52 -12 -60 -14 -8 -2 -44 -11
-80 -20 -36 -9 -75 -19 -87 -21 -43 -8 -260 -74 -378 -114 -348 -120 -659
-320 -831 -534 -55 -69 -77 -107 -125 -211 -25 -55 -37 -136 -35 -230 2 -55 6
-109 9 -120 3 -11 11 -42 17 -70 84 -349 279 -640 558 -833 83 -57 270 -152
340 -173 40 -12 45 -11 64 9 23 23 23 21 -8 172 -11 56 -11 223 1 296 44 272
198 486 466 647 190 113 412 184 669 211 105 12 221 23 320 32 41 4 89 8 105
10 17 1 66 5 110 9 44 3 100 8 125 10 25 2 72 7 105 10 33 3 92 7 130 10 39 3
93 7 120 10 28 3 73 7 100 10 100 8 171 15 230 21 33 3 80 7 105 10 79 6 238
26 370 45 41 6 91 12 110 15 19 2 82 13 140 24 58 11 116 21 130 24 132 23
409 98 584 157 581 196 951 479 1141 874 64 134 91 214 120 360 25 129 27 149
30 340 4 223 -16 383 -68 529 l-13 39 -38 -98z"/>
<path d="M7245 5662 c-27 -15 -77 -46 -110 -68 -33 -22 -86 -55 -117 -73 -82
-46 -89 -80 -37 -182 80 -160 193 -455 240 -629 7 -25 14 -49 15 -55 2 -5 14
-62 28 -125 24 -113 28 -136 41 -235 4 -27 9 -61 11 -75 22 -130 22 -609 0
-730 -3 -14 -7 -45 -10 -70 -13 -101 -20 -140 -43 -250 -64 -307 -147 -549
-280 -814 -115 -229 -291 -499 -424 -651 -14 -16 -50 -57 -79 -90 -158 -181
-410 -398 -625 -542 -437 -291 -937 -477 -1445 -538 -30 -4 -66 -8 -80 -10
-148 -21 -566 -21 -705 0 -16 2 -52 7 -80 10 -218 25 -500 98 -740 192 -230
90 -484 228 -705 383 -130 91 -176 113 -239 116 -71 3 -134 -26 -176 -83 -16
-22 -56 -60 -88 -84 -64 -48 -77 -66 -77 -101 1 -33 23 -55 150 -150 541 -400
1097 -649 1682 -753 43 -8 103 -17 135 -21 32 -3 60 -8 63 -9 13 -8 253 -19
405 -19 159 0 351 9 402 18 12 3 47 7 78 11 46 5 266 44 340 60 11 3 29 7 41
9 124 25 451 128 618 195 146 59 421 192 478 232 14 11 29 19 32 19 3 0 62 36
131 80 356 226 679 515 936 840 220 277 403 590 537 915 39 97 103 271 107
295 1 3 9 32 19 65 21 68 46 160 52 190 4 22 11 54 19 88 9 37 25 120 31 157
3 19 7 46 9 60 36 226 40 291 40 575 0 302 -9 424 -51 665 -23 135 -23 138
-59 285 -67 271 -168 547 -293 803 -64 131 -87 144 -177 94z"/>
<path d="M3917 4418 c-21 -6 -36 -13 -34 -17 113 -211 149 -329 150 -491 0
-100 -3 -126 -27 -194 -58 -170 -164 -306 -346 -445 -141 -107 -287 -187 -568
-313 -76 -33 -157 -70 -182 -81 -25 -12 -47 -22 -50 -22 -3 -1 -36 -16 -74
-34 -995 -460 -1477 -794 -1764 -1222 -204 -304 -237 -712 -90 -1099 35 -91
163 -308 176 -296 2 3 6 22 8 43 8 108 66 308 121 418 71 142 160 263 273 375
115 113 139 132 161 125 11 -4 19 -3 18 2 -5 31 15 50 144 136 189 126 272
172 624 343 869 424 1202 601 1586 841 325 203 563 402 726 607 171 216 246
457 202 649 -41 175 -280 439 -509 560 -173 92 -430 146 -545 115z"/>
</g>
</svg>
