<svg xmlns="http://www.w3.org/2000/svg" viewBox="0 0 193 213" width="193" height="213">
    <defs>
        <style>
            .c,.d,.e,.f,.i,.j,.k,.m,.n,.p,.t,.u,.v,.w,.x,.y{fill-rule:evenodd}.b{fill:none;stroke:#33475c;stroke-linecap:round;stroke-linejoin:round;stroke-width:6px}.c{fill:#fff}.d{fill:#33475c}.e{fill:#cbd6e3}.f{fill:#e4ebef}.i{fill:#9782c4}.j{fill:#9db2c9}.k{fill:#c78244}.m{fill:#7bded2}.n{fill:#231f1f}.p{fill:#e5f6f9}.t{fill:#ffc7aa}.u{fill:#fbe1b2}.v{fill:#ebf0f7}.w,.x{fill:#00a4bf;fill-opacity:.5}.x{fill:#ff8f52}.y{fill:#ccdfef}
        </style>
    </defs>
    <path d="M102.3 104.71a13.45 13.45 0 0 0-12.17 0L2.5 155.3c-3.35 1.93-3.33 5.06 0 7l87.55 49.28a13.94 13.94 0 0 0 12.25 0l87.55-49.28c3.37-1.9 3.39-5 0-7l-87.55-50.6z" style="isolation:isolate" fill-rule="evenodd" fill="#6976d4" opacity=".2"/>
    <path class="b" d="M164.05 52.38v73.27l-60.32-34.83V17.56z"/>
    <path class="b" d="M104.15 90.58l59.48 34.34v-72.3l-59.48-34.34zm59.9 35.49a.39.39 0 0 1-.21-.06l-60.32-34.82a.44.44 0 0 1-.21-.37V17.56a.41.41 0 0 1 .21-.36.4.4 0 0 1 .42 0L164.26 52a.42.42 0 0 1 .21.36v73.27a.41.41 0 0 1-.21.36.42.42 0 0 1-.21.06z"/>
    <path class="b" d="M164 56.46a4.08 4.08 0 0 0 2.05-7.61L105.77 14a4.07 4.07 0 1 0-4.07 7.06L162 55.91a4.05 4.05 0 0 0 2 .55z"/>
    <path class="b" d="M103.74 13.9a3.4 3.4 0 0 0-.95.13 3.62 3.62 0 0 0-2.22 1.7 3.66 3.66 0 0 0 1.34 5l60.31 34.82a3.65 3.65 0 0 0 5-1.34 3.65 3.65 0 0 0-1.33-5l-60.33-34.82a3.68 3.68 0 0 0-1.82-.49zm60.3 43a4.46 4.46 0 0 1-2.24-.61l-60.31-34.84a4.49 4.49 0 1 1 4.51-7.78l60.3 34.82a4.5 4.5 0 0 1 1.64 6.14 4.5 4.5 0 0 1-3.9 2.25z"/>
    <path class="b" d="M139 36.5a1.54 1.54 0 0 0 1.5-1.5 13.12 13.12 0 0 0-6-10.41 5.21 5.21 0 0 0-5.23-.36 5.18 5.18 0 0 0-2.27 4.68 1.53 1.53 0 0 0 3.06 0 2.31 2.31 0 0 1 .78-2.07 2.27 2.27 0 0 1 2.17.36 10.07 10.07 0 0 1 4.43 7.8 1.54 1.54 0 0 0 1.56 1.5z"/>
    <path class="b" d="M131.4 26.28a3.61 3.61 0 0 1 1.77.57 10.54 10.54 0 0 1 4.69 8.15 1.11 1.11 0 0 0 2.22 0 12.67 12.67 0 0 0-5.8-10 4.83 4.83 0 0 0-4.82-.36 4.79 4.79 0 0 0-2.09 4.35 1.11 1.11 0 0 0 2.22 0 2.65 2.65 0 0 1 1-2.42 1.63 1.63 0 0 1 .83-.21zm7.6 10.64a2 2 0 0 1-2-1.92 9.6 9.6 0 0 0-4.27-7.4 2 2 0 0 0-1.76-.36c-.35.2-.56.86-.56 1.7a2 2 0 0 1-3.9 0 5.58 5.58 0 0 1 2.52-5.07 5.6 5.6 0 0 1 5.65.36A13.54 13.54 0 0 1 140.92 35a2 2 0 0 1-1.92 1.92zM112.89 95.8V41l11.67 36.11 18.7-10.59 12.1 37.48v16.32zm-3.61-47.95l-.72-.42.41-.72.73.41z"/>
    <path class="b" d="M112.13 49.47l-1.42-.81.41-.73 1.42.81zm2.87 1.62l-1.42-.81.41-.73 1.42.81-.41.72zm2.84 1.61l-1.42-.81.41-.72 1.43.81zm2.84 1.62l-1.42-.81.42-.73 1.42.81-.42.73zm2.85 1.62l-1.42-.81.41-.73 1.42.81-.41.73zm2.84 1.62l-1.42-.81.41-.73 1.42.81-.41.73zm2.84 1.61l-1.42-.81.42-.72 1.42.81-.42.72zm2.79 1.62l-1.39-.79.41-.72 1.42.81-.41.72zm2.84 1.62l-1.42-.81.41-.73 1.42.81zm2.87 1.59l-1.42-.81.42-.73 1.42.81-.42.73zm2.85 1.62l-1.42-.81.41-.73 1.42.81-.41.73zm2.84 1.62l-1.4-.78.41-.73 1.42.81-.41.73zm2.84 1.61l-1.42-.81.42-.72 1.42.81-.42.72zm2.85 1.62l-1.43-.81.42-.72 1.42.81-.41.72zm2.84 1.62l-1.42-.81.41-.72 1.42.81-.41.72zm2.84 1.62l-1.42-.81.41-.73 1.43.81zm2.15 1.29l-.73-.41.42-.73.72.42zm-47.59-6l-.72-.41.41-.73.73.41zm2.84 1.62l-1.42-.81.42-.73 1.42.81-.42.73zm2.83 1.65l-1.42-.81.42-.72 1.42.81zm2.84 1.62l-1.42-.81.42-.73 1.42.81-.42.73zm2.84 1.61l-1.42-.8.42-.73 1.42.81-.42.72zm2.84 1.62l-1.42-.81.42-.72 1.42.8-.42.73zm2.84 1.62l-1.36-.81.42-.73 1.42.81-.42.73zm2.84 1.61l-1.42-.8.42-.73 1.42.81-.42.72zm2.85 1.65l-1.42-.81.42-.72 1.42.8-.42.73zm2.84 1.62l-1.42-.81.42-.73 1.42.81-.42.73zm2.84 1.61l-1.42-.8.42-.73 1.42.81-.42.72zm2.84 1.62l-1.42-.85.42-.73 1.42.81-.42.73zm2.84 1.62l-1.41-.84.42-.73 1.42.81-.42.73zm2.84 1.61l-1.42-.8.41-.73 1.42.8-.41.73zm2.84 1.62l-1.42-.81.42-.73 1.42.81-.42.73zm2.84 1.62l-1.42-.81.41-.73 1.42.81-.41.73zm2.84 1.61l-1.42-.81.42-.72 1.42.8zm2.15 1.23l-.73-.42.42-.73.72.42z"/>
    <path class="b" d="M152.58 105.67c1.51 2.56 3.71 2.73 4.92.39s1-6.3-.55-8.85-3.72-2.73-4.92-.39-.96 6.3.55 8.85z"/>
    <path class="b" d="M153.12 105.35c.66 1.12 1.47 1.74 2.22 1.73a2 2 0 0 0 1.6-1.31c1.12-2.16.88-5.86-.53-8.24-.65-1.1-1.44-1.73-2.19-1.73a2 2 0 0 0-1.6 1.31 9.52 9.52 0 0 0 .54 8.24zm2.19 3A4.05 4.05 0 0 1 152 106c-1.64-2.75-1.89-6.91-.57-9.46a3.2 3.2 0 0 1 2.68-2 4.1 4.1 0 0 1 3.34 2.34c1.64 2.76 1.88 6.91.57 9.46a3.21 3.21 0 0 1-2.68 2zM144 67.15l9 28.5"/>
    <path class="b" d="M153 96.28a.62.62 0 0 1-.6-.44l-9-28.5a.63.63 0 1 1 1.2-.38l9 28.51a.62.62 0 0 1-.41.78H153z"/>
    <path class="b" d="M141 69.81c1.29 3 3.53 3.93 5 2.19s1.65-5.54.36-8.49-3.53-3.93-5-2.19-1.61 5.54-.36 8.49z"/>
    <path class="b" d="M141.61 69.56c.65 1.5 1.63 2.52 2.54 2.65a1.51 1.51 0 0 0 1.42-.62c1.32-1.55 1.44-5.13.26-7.83-.65-1.51-1.63-2.52-2.55-2.66a1.53 1.53 0 0 0-1.41.62c-1.32 1.55-1.44 5.13-.26 7.83zm2.75 3.93h-.39c-1.38-.21-2.66-1.45-3.51-3.4-1.4-3.2-1.2-7.22.45-9.15a2.78 2.78 0 0 1 2.56-1c1.38.2 2.66 1.44 3.51 3.4 1.4 3.19 1.2 7.21-.46 9.14a2.8 2.8 0 0 1-2.16 1.08zm-1.1-7l-18.7 10.59"/>
    <path class="b" d="M124.56 77.71a.65.65 0 0 1-.55-.32.62.62 0 0 1 .24-.85L143 66a.62.62 0 0 1 .86.23.64.64 0 0 1-.24.86l-18.7 10.59a.68.68 0 0 1-.31.08z"/>
    <path class="b" d="M122.37 80.86c1.52 2.56 3.72 2.73 4.93.39s1-6.3-.55-8.85-3.75-2.73-4.93-.4-1 6.3.55 8.85z"/>
    <path class="b" d="M124 71a2 2 0 0 0-1.6 1.31c-1.12 2.16-.88 5.86.53 8.25.66 1.11 1.48 1.73 2.23 1.72a2.05 2.05 0 0 0 1.6-1.3c1.12-2.17.88-5.87-.53-8.25-.65-1.1-1.45-1.72-2.19-1.72zm1.08 12.54a4.08 4.08 0 0 1-3.27-2.35c-1.63-2.75-1.88-6.91-.57-9.46a3.22 3.22 0 0 1 2.68-2h.08a4.09 4.09 0 0 1 3.27 2.34c1.63 2.76 1.88 6.91.56 9.46a3.18 3.18 0 0 1-2.68 2h-.07zm-.54-6.45l-11.62-35.67"/>
    <path class="b" d="M124.56 77.71a.64.64 0 0 1-.6-.43l-11.63-35.67a.63.63 0 0 1 1.19-.39l11.64 35.67a.64.64 0 0 1-.41.79.63.63 0 0 1-.19.03z"/>
    <path class="b" d="M110.71 45.2c1.51 2.55 3.71 2.72 4.92.39s1-6.3-.55-8.86-3.72-2.72-4.93-.38-1 6.3.55 8.85z"/>
    <path class="b" d="M112.35 35.33a2.05 2.05 0 0 0-1.6 1.3c-1.12 2.17-.88 5.86.53 8.25.65 1.1 1.45 1.72 2.19 1.72a2 2 0 0 0 1.6-1.3c1.12-2.17.88-5.86-.53-8.25-.65-1.1-1.45-1.72-2.19-1.72zm1.08 12.53a4.07 4.07 0 0 1-3.26-2.34c-1.64-2.76-1.89-6.92-.57-9.46a3.21 3.21 0 0 1 2.68-2 4.06 4.06 0 0 1 3.34 2.34c1.63 2.76 1.88 6.92.57 9.46a3.22 3.22 0 0 1-2.68 2zm20.3 60.31v7m0 .42a.42.42 0 0 1-.42-.42v-7a.42.42 0 0 1 .42-.42.41.41 0 0 1 .41.42v7a.41.41 0 0 1-.41.42z"/>
    <path class="b" d="M164.05 127.68a2 2 0 0 0 1-3.8l-60.3-34.82a2 2 0 0 0-2 3.53L163 127.41a2 2 0 0 0 1 .27z"/>
    <path class="b" d="M103.74 89.21a1.62 1.62 0 0 0-.81 3l60.31 34.82a1.67 1.67 0 0 0 2.21-.59 1.61 1.61 0 0 0-.59-2.21l-60.32-34.81a1.65 1.65 0 0 0-.8-.21zm60.31 38.89a2.51 2.51 0 0 1-1.23-.32L102.5 93a2.46 2.46 0 0 1 2.5-4.3l60.32 34.82a2.45 2.45 0 0 1-1.23 4.58zm-31.45-12.91a.94.94 0 0 0-.47.12 1.4 1.4 0 0 0-.53 1.28 5.27 5.27 0 0 0 2.33 4 1.42 1.42 0 0 0 1.39.17 1.4 1.4 0 0 0 .53-1.28 5.25 5.25 0 0 0-2.34-4 1.88 1.88 0 0 0-.91-.29zm2.26 6.58a2.76 2.76 0 0 1-1.35-.41 6.07 6.07 0 0 1-2.75-4.77 2 2 0 0 1 3.17-1.83 6.11 6.11 0 0 1 2.76 4.77 2.18 2.18 0 0 1-1 2 1.74 1.74 0 0 1-.87.23z"/>
    <path class="b" d="M161.12 111.49c.65-.41 8.34 7.6 9.06 9 1.08 2 5.59 4.5 6.91 4.72s4.61 5 5.59 6.19 6 6.48 4 7.32-2.14 2.14-5.77-2.73a57 57 0 0 0-4.22-4.83s2.12 24.76.91 28.27c0 0-6.58 1.76-5.81-1.2s1.2-13.93-.33-16.35-1.22 15.36-2.21 17.56c0 0-4.82 1.09-4.93-1.87s1.87-27.6 3-33.2a64.71 64.71 0 0 0-4.82-5.94c-3.68-3.65-4.22-5.15-1.39-6.9z"/>
    <path class="b" d="M171.23 141.2a.75.75 0 0 1 .62.42c1.64 2.58 1.14 13.73.38 16.67-.12.48 0 .68.12.79.71.71 3.32.37 5 0 .81-3.28-.28-19.55-1-27.89a.44.44 0 0 1 .25-.42.41.41 0 0 1 .47.09 57.65 57.65 0 0 1 4.26 4.87c2.86 3.84 3.29 3.62 4.44 3 .24-.13.51-.27.83-.41a.27.27 0 0 0 .18-.2c.26-1.13-2.68-4.5-3.78-5.77-.26-.29-.47-.53-.6-.69s-.51-.66-.88-1.15c-1.07-1.42-3.58-4.75-4.46-4.9-1.38-.23-6-2.7-7.21-4.93-.66-1.25-7.32-8.18-8.59-8.73-.95.61-1.41 1.14-1.47 1.71-.12 1.07 1.13 2.56 3.05 4.47a64 64 0 0 1 4.87 6 .43.43 0 0 1 .07.33c-1.06 5.44-3.07 30.13-3 33.1a1.44 1.44 0 0 0 .55 1.15c.91.69 2.77.53 3.65.37a59.1 59.1 0 0 0 .68-8.07c.38-7.48.59-9.53 1.42-9.75h.15zm2.87 19.13a3.4 3.4 0 0 1-2.34-.65 1.58 1.58 0 0 1-.34-1.6c.77-3 1.1-13.22-.16-15.81a63.91 63.91 0 0 0-.76 8.74c-.2 4.06-.38 7.56-.83 8.56a.42.42 0 0 1-.29.24c-.12 0-3 .67-4.56-.48a2.27 2.27 0 0 1-.87-1.79c-.12-3.16 1.84-27.2 2.94-33.11a60.53 60.53 0 0 0-4.68-5.74c-2.21-2.19-3.45-3.74-3.29-5.15.1-.88.71-1.62 2-2.41a.54.54 0 0 1 .46 0c1.39.38 8.5 7.87 9.19 9.18 1 1.87 5.38 4.29 6.61 4.5s3 2.57 5 5.22c.36.47.66.87.86 1.12l.58.67c2.09 2.4 4.29 5.08 4 6.51a1.1 1.1 0 0 1-.67.78c-.29.12-.54.26-.77.38-1.67.9-2.47.84-5.5-3.24a50.69 50.69 0 0 0-3.37-3.93c.41 5 1.87 24.11.79 27.26a.46.46 0 0 1-.29.27 16.06 16.06 0 0 1-3.65.53z"/>
    <path class="b" d="M168.86 117.48a4.39 4.39 0 1 0 4.39-4.39 4.38 4.38 0 0 0-4.39 4.39z"/>
    <path class="b" d="M173.25 113.51a4 4 0 1 0 4 4 4 4 0 0 0-4-4zm0 8.77a4.81 4.81 0 1 1 4.8-4.8 4.81 4.81 0 0 1-4.8 4.8zm-19-24.07l6.92 15.63m0 .84a.85.85 0 0 1-.77-.5l-6.91-15.63a.84.84 0 1 1 1.53-.67l6.92 15.63a.84.84 0 0 1-.43 1.1.83.83 0 0 1-.34.07z"/>
    <path class="c" d="M164.05 52.38v73.27l-60.32-34.83V17.56"/>
    <path class="d" d="M104.15 90.58l59.48 34.34v-72.3l-59.48-34.34zm59.9 35.49a.39.39 0 0 1-.21-.06l-60.32-34.82a.44.44 0 0 1-.21-.37V17.56a.41.41 0 0 1 .21-.36.4.4 0 0 1 .42 0L164.26 52a.42.42 0 0 1 .21.36v73.27a.41.41 0 0 1-.21.36.42.42 0 0 1-.21.06z"/>
    <path class="e" d="M164 56.46a4.08 4.08 0 0 0 2.05-7.61L105.77 14a4.07 4.07 0 1 0-4.07 7.06L162 55.91a4.05 4.05 0 0 0 2 .55"/>
    <path class="d" d="M103.74 13.9a3.4 3.4 0 0 0-.95.13 3.62 3.62 0 0 0-2.22 1.7 3.66 3.66 0 0 0 1.34 5l60.31 34.82a3.65 3.65 0 0 0 5-1.34 3.65 3.65 0 0 0-1.33-5l-60.33-34.82a3.68 3.68 0 0 0-1.82-.49m60.3 43a4.46 4.46 0 0 1-2.24-.61l-60.31-34.84a4.49 4.49 0 1 1 4.51-7.78l60.3 34.82a4.5 4.5 0 0 1 1.64 6.14 4.5 4.5 0 0 1-3.9 2.25"/>
    <path class="f" d="M139 36.5a1.54 1.54 0 0 0 1.5-1.5 13.12 13.12 0 0 0-6-10.41 5.21 5.21 0 0 0-5.23-.36 5.18 5.18 0 0 0-2.27 4.68 1.53 1.53 0 0 0 3.06 0 2.31 2.31 0 0 1 .78-2.07 2.27 2.27 0 0 1 2.17.36 10.07 10.07 0 0 1 4.43 7.8 1.54 1.54 0 0 0 1.56 1.5"/>
    <path class="d" d="M131.4 26.28a3.61 3.61 0 0 1 1.77.57 10.54 10.54 0 0 1 4.69 8.15 1.11 1.11 0 0 0 2.22 0 12.67 12.67 0 0 0-5.8-10 4.83 4.83 0 0 0-4.82-.36 4.79 4.79 0 0 0-2.09 4.35 1.11 1.11 0 0 0 2.22 0 2.65 2.65 0 0 1 1-2.42 1.63 1.63 0 0 1 .83-.21M139 36.92a2 2 0 0 1-2-1.92 9.63 9.63 0 0 0-4.27-7.4 2 2 0 0 0-1.76-.36 2 2 0 0 0-.57 1.7 1.95 1.95 0 1 1-3.89 0 5.6 5.6 0 0 1 2.49-5.1 5.6 5.6 0 0 1 5.65.36 13.54 13.54 0 0 1 6.26 10.8 2 2 0 0 1-1.94 2"/>
    <path d="M112.89 95.8V41l11.67 36.11 18.7-10.59 12.1 37.48v16.32" fill="#f4f2f9" fill-rule="evenodd"/>
    <path d="M109.28 47.85l-.72-.42.41-.72.73.41m2.43 2.35l-1.42-.81.41-.73 1.42.81zm2.87 1.62l-1.42-.81.41-.73 1.42.81-.41.72zm2.84 1.61l-1.42-.81.41-.72 1.43.81zm2.84 1.62l-1.42-.81.42-.73 1.42.81-.42.73zm2.85 1.62l-1.42-.81.41-.73 1.42.81-.41.73zm2.84 1.62l-1.42-.81.41-.73 1.42.81-.41.73zm2.84 1.61l-1.42-.81.42-.72 1.42.81-.42.72zm2.79 1.62l-1.39-.79.41-.72 1.42.81-.41.72zm2.84 1.62l-1.42-.81.41-.73 1.42.81zm2.87 1.59l-1.42-.81.42-.73 1.42.81-.42.73zm2.85 1.62l-1.42-.81.41-.73 1.42.81-.41.73zm2.84 1.62l-1.4-.78.41-.73 1.42.81-.41.73zm2.84 1.61l-1.42-.81.42-.72 1.42.81-.42.72zm2.85 1.62l-1.43-.81.42-.72 1.42.81-.41.72zm2.84 1.62l-1.42-.81.41-.72 1.42.81-.41.72zm2.84 1.62l-1.42-.81.41-.73 1.43.81zm2.15 1.29l-.73-.41.42-.73.72.42m-48-5.2l-.72-.41.41-.73.73.41m2.42 2.35l-1.42-.81.42-.73 1.42.81-.42.73zm2.83 1.57l-1.42-.81.42-.72 1.42.81zm2.84 1.62l-1.42-.81.42-.73 1.42.81-.42.73zm2.84 1.61l-1.42-.8.42-.73 1.42.81-.42.72zm2.84 1.62l-1.42-.81.42-.72 1.42.8-.42.73zm2.84 1.62l-1.36-.81.42-.73 1.42.81-.42.73zm2.84 1.61l-1.42-.8.42-.73 1.42.81-.42.72zm2.85 1.65l-1.42-.81.42-.72 1.42.8-.42.73zm2.84 1.62l-1.42-.81.42-.73 1.42.81-.42.73zm2.84 1.61l-1.42-.8.42-.73 1.42.81-.42.72zm2.84 1.62l-1.42-.85.42-.73 1.42.81-.42.73zm2.84 1.62l-1.41-.84.42-.73 1.42.81-.42.73zm2.84 1.61l-1.42-.8.41-.73 1.42.8-.41.73zm2.84 1.62l-1.42-.81.42-.73 1.42.81-.42.73zm2.84 1.62l-1.42-.81.41-.73 1.42.81-.41.73zm2.84 1.61l-1.42-.81.42-.72 1.42.8zm2.15 1.23l-.73-.42.42-.73.72.42" fill="#e0e6ee" fill-rule="evenodd"/>
    <path class="c" d="M152.58 105.67c1.51 2.56 3.71 2.73 4.92.39s1-6.3-.55-8.85-3.72-2.73-4.92-.39-1 6.3.55 8.85"/>
    <path class="i" d="M153.12 105.35c.66 1.12 1.47 1.74 2.22 1.73a2 2 0 0 0 1.6-1.31c1.12-2.16.88-5.86-.53-8.24-.65-1.1-1.44-1.73-2.19-1.73a2 2 0 0 0-1.6 1.31 9.52 9.52 0 0 0 .54 8.24zm2.19 3A4.05 4.05 0 0 1 152 106c-1.64-2.75-1.89-6.91-.57-9.46a3.2 3.2 0 0 1 2.68-2 4.1 4.1 0 0 1 3.34 2.34c1.64 2.76 1.88 6.91.57 9.46a3.21 3.21 0 0 1-2.68 2z"/>
    <path class="c" d="M144 67.15l9 28.5"/>
    <path class="i" d="M153 96.28a.62.62 0 0 1-.6-.44l-9-28.5a.63.63 0 1 1 1.2-.38l9 28.51a.62.62 0 0 1-.41.78H153"/>
    <path class="c" d="M141 69.81c1.29 3 3.53 3.93 5 2.19s1.65-5.54.36-8.49-3.53-3.93-5-2.19-1.64 5.54-.36 8.49"/>
    <path class="i" d="M141.61 69.56c.65 1.5 1.63 2.52 2.54 2.65a1.51 1.51 0 0 0 1.42-.62c1.32-1.55 1.44-5.13.26-7.83-.65-1.51-1.63-2.52-2.55-2.66a1.53 1.53 0 0 0-1.41.62c-1.32 1.55-1.44 5.13-.26 7.83m2.75 3.93a2.56 2.56 0 0 1-.39 0c-1.38-.2-2.66-1.44-3.51-3.39-1.4-3.2-1.2-7.22.45-9.15a2.75 2.75 0 0 1 2.56-1c1.38.2 2.66 1.44 3.51 3.39 1.4 3.2 1.2 7.22-.46 9.15a2.8 2.8 0 0 1-2.16 1.08"/>
    <path class="c" d="M143.26 66.49l-18.7 10.59"/>
    <path class="i" d="M124.56 77.71a.65.65 0 0 1-.55-.32.62.62 0 0 1 .24-.85L143 66a.62.62 0 0 1 .86.23.64.64 0 0 1-.24.86l-18.7 10.59a.68.68 0 0 1-.31.08"/>
    <path class="c" d="M122.37 80.86c1.52 2.56 3.72 2.73 4.93.39s1-6.3-.55-8.85-3.75-2.73-4.93-.4-1 6.3.55 8.85"/>
    <path class="i" d="M124 71a2 2 0 0 0-1.6 1.31c-1.12 2.16-.88 5.86.53 8.25.66 1.11 1.48 1.73 2.23 1.72a2.05 2.05 0 0 0 1.6-1.3c1.12-2.17.88-5.87-.53-8.25-.65-1.1-1.45-1.72-2.19-1.72m1.08 12.53a4.09 4.09 0 0 1-3.27-2.34c-1.63-2.76-1.88-6.92-.57-9.46a3.22 3.22 0 0 1 2.68-2h.04a4.09 4.09 0 0 1 3.27 2.34c1.63 2.76 1.88 6.92.56 9.46a3.21 3.21 0 0 1-2.68 2h-.07"/>
    <path class="c" d="M124.56 77.08l-11.64-35.66"/>
    <path class="i" d="M124.56 77.71a.64.64 0 0 1-.6-.43l-11.63-35.67a.63.63 0 0 1 1.19-.39l11.64 35.67a.64.64 0 0 1-.41.79.63.63 0 0 1-.19 0"/>
    <path class="c" d="M110.71 45.2c1.51 2.55 3.71 2.72 4.92.39s1-6.3-.55-8.86-3.72-2.72-4.93-.38-1 6.3.55 8.85"/>
    <path class="i" d="M112.35 35.33a2.05 2.05 0 0 0-1.6 1.3c-1.12 2.17-.88 5.86.53 8.25.65 1.1 1.45 1.72 2.19 1.72a2 2 0 0 0 1.6-1.3c1.12-2.17.88-5.86-.53-8.25-.65-1.1-1.45-1.72-2.19-1.72m1.08 12.53a4.07 4.07 0 0 1-3.26-2.34c-1.64-2.76-1.89-6.92-.57-9.46a3.19 3.19 0 0 1 2.68-2 4.06 4.06 0 0 1 3.34 2.34c1.63 2.76 1.88 6.92.57 9.46a3.22 3.22 0 0 1-2.68 2h-.08"/>
    <path class="c" d="M133.73 108.17v7m0 .42a.42.42 0 0 1-.42-.42v-7a.42.42 0 0 1 .42-.42.41.41 0 0 1 .41.42v7a.41.41 0 0 1-.41.42"/>
    <path class="e" d="M164.05 127.68a2 2 0 0 0 1-3.8l-60.3-34.82a2 2 0 0 0-2 3.53L163 127.41a2 2 0 0 0 1 .27"/>
    <path class="d" d="M103.74 89.21a1.62 1.62 0 0 0-.81 3l60.31 34.82a1.67 1.67 0 0 0 2.21-.59 1.61 1.61 0 0 0-.59-2.21l-60.32-34.81a1.65 1.65 0 0 0-.8-.21m60.31 38.89a2.54 2.54 0 0 1-1.23-.32L102.5 93a2.46 2.46 0 0 1 2.5-4.3l60.32 34.82a2.45 2.45 0 0 1-1.23 4.58"/>
    <path class="c" d="M132.6 115.19a.94.94 0 0 0-.47.12 1.4 1.4 0 0 0-.53 1.28 5.27 5.27 0 0 0 2.33 4 1.42 1.42 0 0 0 1.39.17 1.4 1.4 0 0 0 .53-1.28 5.25 5.25 0 0 0-2.34-4 1.88 1.88 0 0 0-.91-.29m2.26 6.58a2.76 2.76 0 0 1-1.35-.41 6.07 6.07 0 0 1-2.75-4.77 2 2 0 0 1 3.17-1.83 6.11 6.11 0 0 1 2.76 4.77 2.18 2.18 0 0 1-1 2 1.74 1.74 0 0 1-.87.23m26.26-10.28c.65-.41 8.34 7.6 9.06 9 1.08 2 5.59 4.5 6.91 4.72s4.61 5 5.59 6.19 6 6.48 4 7.32-2.14 2.14-5.77-2.73a57 57 0 0 0-4.22-4.83s2.12 24.76.91 28.27c0 0-6.58 1.76-5.81-1.2s1.2-13.93-.33-16.35-1.22 15.36-2.21 17.56c0 0-4.82 1.09-4.93-1.87s1.87-27.6 3-33.2a64.71 64.71 0 0 0-4.82-5.94c-3.68-3.65-4.22-5.15-1.39-6.9"/>
    <path class="d" d="M171.23 141.2a.75.75 0 0 1 .62.42c1.64 2.58 1.14 13.73.38 16.67-.12.48 0 .68.12.79.71.71 3.32.37 5 0 .81-3.28-.28-19.55-1-27.89a.44.44 0 0 1 .25-.42.41.41 0 0 1 .47.09 57.65 57.65 0 0 1 4.26 4.87c2.86 3.84 3.29 3.62 4.44 3 .24-.13.51-.27.83-.41a.27.27 0 0 0 .18-.2c.26-1.13-2.68-4.5-3.78-5.77-.26-.29-.47-.53-.6-.69s-.51-.66-.88-1.15c-1.07-1.42-3.58-4.75-4.46-4.9-1.38-.23-6-2.7-7.21-4.93-.66-1.25-7.32-8.18-8.59-8.73-.95.61-1.41 1.14-1.47 1.71-.12 1.07 1.13 2.56 3.05 4.47a64 64 0 0 1 4.87 6 .43.43 0 0 1 .07.33c-1.06 5.44-3.07 30.13-3 33.1a1.44 1.44 0 0 0 .55 1.15c.91.69 2.77.53 3.65.37a59.1 59.1 0 0 0 .68-8.07c.38-7.48.59-9.53 1.42-9.75h.15m2.87 19.13a3.4 3.4 0 0 1-2.34-.65 1.58 1.58 0 0 1-.34-1.6c.77-3 1.1-13.22-.16-15.81-.39 1.24-.6 5.52-.76 8.74-.21 4.06-.38 7.56-.83 8.56a.42.42 0 0 1-.29.24c-.12 0-3.06.67-4.56-.48a2.24 2.24 0 0 1-.87-1.79c-.12-3.16 1.84-27.2 2.94-33.11a60.53 60.53 0 0 0-4.68-5.74c-2.21-2.19-3.45-3.74-3.29-5.15.09-.88.71-1.62 2-2.41a.54.54 0 0 1 .46 0c1.39.38 8.5 7.87 9.19 9.18 1 1.87 5.38 4.29 6.61 4.5s3 2.57 5 5.22c.36.47.66.87.87 1.12l.58.67c2.09 2.4 4.29 5.08 4 6.51a1.12 1.12 0 0 1-.67.78c-.29.12-.54.26-.77.38-1.67.9-2.47.84-5.5-3.24a50.66 50.66 0 0 0-3.38-3.93c.41 5 1.88 24.11.79 27.26a.42.42 0 0 1-.28.27 16.06 16.06 0 0 1-3.65.53"/>
    <path class="c" d="M168.86 117.48a4.39 4.39 0 1 0 4.39-4.39 4.38 4.38 0 0 0-4.39 4.39"/>
    <path class="d" d="M173.25 113.51a4 4 0 1 0 4 4 4 4 0 0 0-4-4m0 8.77a4.81 4.81 0 1 1 4.8-4.8 4.81 4.81 0 0 1-4.8 4.8"/>
    <path class="c" d="M154.25 98.21l6.92 15.63"/>
    <path class="d" d="M161.17 114.68a.84.84 0 0 1-.77-.5l-6.91-15.63a.84.84 0 1 1 1.53-.67l6.92 15.63a.84.84 0 0 1-.43 1.1.83.83 0 0 1-.34.07"/>
    <path class="b" d="M146.26 168.72l3.58 2.06 3.57-2.06-3.57-2.07-3.58 2.07zm3.58 3a.5.5 0 0 1-.21-.05l-4.41-2.55a.42.42 0 0 1-.21-.36.44.44 0 0 1 .21-.37l4.41-2.54a.4.4 0 0 1 .42 0l4.41 2.54a.42.42 0 0 1 .21.36.44.44 0 0 1-.21.37l-4.41 2.54a.42.42 0 0 1-.21.06z"/>
    <path class="b" d="M150.26 146v24.5l3.57-2.07V144zm-.42 25.64a.5.5 0 0 1-.21-.05.44.44 0 0 1-.21-.37V145.8a.41.41 0 0 1 .21-.36l4.41-2.55a.4.4 0 0 1 .42 0 .41.41 0 0 1 .21.36v25.47a.42.42 0 0 1-.21.36l-4.41 2.54a.42.42 0 0 1-.21.06z"/>
    <path class="b" d="M149.84 171.26l-4.41-2.54v-9.17l4.41-2.55z"/>
    <path class="b" d="M145.85 168.48l3.57 2.06v-12.81l-3.57 2.06v8.68zm4 3.2a.5.5 0 0 1-.21-.05l-4.41-2.55a.42.42 0 0 1-.21-.36v-9.17a.41.41 0 0 1 .21-.36l4.41-2.55a.45.45 0 0 1 .42 0 .41.41 0 0 1 .21.36v14.26a.44.44 0 0 1-.21.37.54.54 0 0 1-.21.05zM86.38 6.29L7.94 51.58V134l78.44-45.29z"/>
    <path class="b" d="M8.36 51.82v81.45L86 88.47V7zm-.42 82.59a.54.54 0 0 1-.21 0 .42.42 0 0 1-.21-.36V51.58a.44.44 0 0 1 .21-.37L86.17 5.93a.4.4 0 0 1 .42 0 .42.42 0 0 1 .2.36v82.42a.41.41 0 0 1-.21.36L8.15 134.36a.39.39 0 0 1-.21.06z"/>
    <path class="b" d="M12.55 136.65L7.94 134l78.44-45.29L91 91.37z"/>
    <path class="b" d="M8.78 134l3.77 2.17 77.59-44.8-3.76-2.18zm3.77 3.07a.46.46 0 0 1-.21 0l-4.61-2.66a.42.42 0 0 1-.21-.36.44.44 0 0 1 .21-.37l78.44-45.33a.4.4 0 0 1 .42 0l4.6 2.65a.41.41 0 0 1 0 .72L12.76 137a.54.54 0 0 1-.21 0zM82.3 13.35v73L12 126.94v-73l70.3-40.59"/>
    <path class="b" d="M12.43 54.17v72l69.45-40.05V14.07zM12 127.36a.36.36 0 0 1-.2-.06.41.41 0 0 1-.21-.36v-73a.44.44 0 0 1 .21-.37L82.09 13a.45.45 0 0 1 .42 0 .44.44 0 0 1 .21.37v73a.42.42 0 0 1-.21.36L12.22 127.3a.37.37 0 0 1-.22.06zm83.83-12.74l-58.41 33.73 58.42 33.72 58.41-33.72z"/>
    <path class="b" d="M38.26 148.35l57.58 33.24 57.57-33.24-57.57-33.25-57.58 33.25zm57.58 34.14a.37.37 0 0 1-.21-.06l-58.42-33.72a.44.44 0 0 1-.21-.37.42.42 0 0 1 .21-.36l58.42-33.72a.38.38 0 0 1 .41 0L154.46 148a.42.42 0 0 1 .21.36.44.44 0 0 1-.21.37L96 182.43a.37.37 0 0 1-.21.06zm-3.58 17.41l3.58 2.1 3.57-2.06-3.57-2.07-3.58 2.07zm3.58 3a.37.37 0 0 1-.21-.06l-4.41-2.54a.42.42 0 0 1-.21-.36.44.44 0 0 1 .21-.37l4.41-2.57a.4.4 0 0 1 .42 0l4.41 2.54a.44.44 0 0 1 .21.37.42.42 0 0 1-.21.36l-4.41 2.54a.42.42 0 0 1-.21.05zm-57.58-34.18l3.57 2.06 3.58-2.06-3.58-2.07-3.57 2.07zm3.57 3a.54.54 0 0 1-.21-.05l-4.41-2.55a.42.42 0 0 1-.21-.36.44.44 0 0 1 .21-.37l4.41-2.54a.4.4 0 0 1 .42 0l4.41 2.54a.42.42 0 0 1 .21.36.44.44 0 0 1-.21.37l-4.45 2.5a.37.37 0 0 1-.21.06z"/>
    <path class="b" d="M49.82 146.41c.65-1.22 1.07-7.21 1.07-7.21-6.22.61-7.4-9.75-7.4-9.75L40.25 124l.77-3.74 3.55-1.26h4.89l4.09 1.65.6 4-1 2.77a2.36 2.36 0 0 0 .36 1.07s3.52-2.36 5.85.48-.49 5.51-1.46 6l-6.27-.45s3.81.33 4.38 2.26-1.62 8.85-1 11c.38 1.27-5-.47-5.19-1.41z"/>
    <path class="b" d="M49.82 146.41zm.47 0a6.34 6.34 0 0 0 2.22 1.08 5.32 5.32 0 0 0 2.07.38c-.32-1.26.08-3.53.5-5.93.36-2 .73-4.16.48-5-.4-1.35-3-1.88-4-2a.42.42 0 0 1 .07-.84l6.14.45a4.71 4.71 0 0 0 2-2.75 3 3 0 0 0-.75-2.59c-2-2.51-5.16-.48-5.29-.39a.42.42 0 0 1-.31.06.42.42 0 0 1-.27-.18 2.84 2.84 0 0 1-.43-1.29.41.41 0 0 1 0-.16l1-2.67-.54-3.66-3.79-1.53h-4.75l-3.26 1.14-.68 3.35 3.15 5.35a.49.49 0 0 1 .06.17c0 .1 1.21 10 6.94 9.38a.45.45 0 0 1 .33.12.42.42 0 0 1 .13.32c0 .6-.41 5.58-1 7.15zm4.09 2.31a6.38 6.38 0 0 1-1.65-.28c-.12 0-3.08-.87-3.32-1.9a.45.45 0 0 1 0-.3c.46-.85.83-4.66 1-6.56h-.08c-5.81 0-7.13-9-7.26-10.06l-3.2-5.42a.42.42 0 0 1 0-.29l.76-3.74a.43.43 0 0 1 .28-.32l3.55-1.23a.34.34 0 0 1 .14 0h4.89a.45.45 0 0 1 .16 0l4.08 1.64a.42.42 0 0 1 .26.33l.6 4a.39.39 0 0 1 0 .21l-1 2.69a1.3 1.3 0 0 0 .1.41c1.47-.8 4.16-1.45 6 .81a3.83 3.83 0 0 1 .92 3.28 5.53 5.53 0 0 1-2.5 3.38.37.37 0 0 1-.23.05l-2.66-.19a2.69 2.69 0 0 1 1.2 1.46c.3 1-.07 3.14-.46 5.39s-.81 4.61-.5 5.64a.67.67 0 0 1-.15.71c-.08.09-.27.28-.87.28z"/>
    <path class="b" d="M42.35 125.21C51.28 117.37 53 123.1 53 123.1a15.27 15.27 0 0 0-5.35 3.76c-5.63 6-9.45.43-9.52-4.17s8.58-5.46 8.58-5.46 9.11-.85 9.49 5.91c.29 5.17-6.17 5.1-8.55 3.72"/>
    <path class="b" d="M47.61 117.61h-.89c-.02 0-8.26.88-8.19 5 0 2.39 1.2 5.37 3.3 6.18 1.61.62 3.51-.16 5.49-2.28a16.09 16.09 0 0 1 5.1-3.68 2.54 2.54 0 0 0-1.56-1.27c-1.31-.37-3.8 0-8.24 3.92a.42.42 0 0 1-.59 0 .41.41 0 0 1 0-.59c3.8-3.34 6.84-4.72 9-4.09a3.44 3.44 0 0 1 2.35 2.2.43.43 0 0 1-.26.52 15 15 0 0 0-4.79 3.24 7.25 7.25 0 0 0 5.86-.24 3.38 3.38 0 0 0 1.57-3.33 5 5 0 0 0-1.76-3.71c-1.91-1.65-4.94-1.87-6.43-1.87zm-4.67 12.3a3.77 3.77 0 0 1-1.41-.27c-2.47-.95-3.8-4.21-3.84-6.95-.07-4.92 8.58-5.84 9-5.88.21 0 5.07-.44 7.94 2a5.86 5.86 0 0 1 2 4.28 4.2 4.2 0 0 1-2 4.09 8 8 0 0 1-6.91.16c-1.91 1.98-3.52 2.57-4.78 2.57z"/>
    <path class="b" d="M47.12 121.87a22.52 22.52 0 0 0-4.77 3.34c-.21-.53-1-2.65.92-3.85a3.19 3.19 0 0 1 3.85.51z"/>
    <path class="b" d="M47.12 121.87zm0 0zm-2.29-.56a2.47 2.47 0 0 0-1.34.41 2.34 2.34 0 0 0-.94 2.77 23.51 23.51 0 0 1 3.8-2.69 2.82 2.82 0 0 0-1.52-.49zm-2.48 4.32h-.09a.41.41 0 0 1-.29-.25c-.28-.69-1-3 1.08-4.36a3.3 3.3 0 0 1 3.5-.06c.37.2 1 .59 1 .92a.42.42 0 0 1-.24.38 22.17 22.17 0 0 0-4.67 3.28.42.42 0 0 1-.29.09zm13.06 4.67c-1.54.28-9.69 3.65-10.28 5.42s2.45 5.9 3.19 3.86 8.56-4.08 9.53-4.6"/>
    <path class="b" d="M47.69 140.55a1.22 1.22 0 0 1-.41-.07c-1.36-.48-3.06-3.39-2.55-4.9.71-2.1 9.3-5.46 10.6-5.69a.42.42 0 1 1 .15.82c-1.74.32-9.47 3.71-10 5.14-.36 1.07 1.06 3.5 2 3.84.13 0 .25.08.37-.25.57-1.59 4.27-2.95 8-4.21.81-.27 1.5-.51 1.71-.62a.42.42 0 0 1 .4.74 15.82 15.82 0 0 1-1.84.67c-2.28.77-7 2.36-7.5 3.71a1.09 1.09 0 0 1-1 .82zM67 118a9.76 9.76 0 0 1-.06-2.2c0-.15 0-.28.06-.42s0-.23 0-.34a3.37 3.37 0 0 1 .12-.48 1.68 1.68 0 0 1 .06-.24c1-3.21 4.35-3.76 6.36-4.06 2.84-.42 7-.89 10.06 5.69 0 0 .76 5.6-2.17 7.89 0 0-2.71-.51-2.76-1.65 0 0 1.32-1.36 1.53-5 0 0-.74-2.25-2.28-2.71l-4 2.25-3.35-1.2a7 7 0 0 0 0 2.63"/>
    <path class="b" d="M81.46 124.28h-.07c-.51-.09-3-.64-3.1-2a.41.41 0 0 1 .11-.3s1.2-1.31 1.41-4.7a4.24 4.24 0 0 0-1.81-2.37l-3.83 2.15a.43.43 0 0 1-.35 0l-2.9-1a8.73 8.73 0 0 0 .14 2 .41.41 0 0 1-.33.49.41.41 0 0 1-.49-.33 7.16 7.16 0 0 1 0-2.85.47.47 0 0 1 .22-.24.44.44 0 0 1 .32 0l3.17 1.13 3.83-2.16a.42.42 0 0 1 .33 0c1.73.52 2.53 2.87 2.56 3a.44.44 0 0 1 0 .16 9.41 9.41 0 0 1-1.5 5.14c.2.45 1.31.9 2.2 1.09 2.38-2.06 1.94-6.73 1.87-7.32-3-6.37-7-5.78-9.59-5.4-2.44.37-5.12 1-6 3.77v.19c0 .17-.08.3-.11.45v.64a.09.09 0 0 1 0 .07 10.7 10.7 0 0 0 .06 2.1.42.42 0 0 1-.36.47.4.4 0 0 1-.46-.36 9.74 9.74 0 0 1-.07-2.21.09.09 0 0 1 0-.07 1.55 1.55 0 0 1 0-.32v-.23a1.87 1.87 0 0 1 0-.25 3.37 3.37 0 0 1 .12-.48v-.12a.85.85 0 0 1 0-.17c1.15-3.47 4.74-4 6.68-4.29 2.69-.41 7.2-1.08 10.5 5.92a.27.27 0 0 1 0 .12c0 .24.76 5.87-2.32 8.28a.39.39 0 0 1-.26.09z"/>
    <path class="b" d="M78.84 113.85s.27 4.07 1.21 4.92l-2.49 2.51-4.69 1.14-.79-2.54s-1.69-1.28-1.52-5.78"/>
    <path class="b" d="M72.87 122.84a.42.42 0 0 1-.4-.29l-.75-2.44c-.41-.39-1.73-2-1.58-6a.43.43 0 0 1 .43-.41.42.42 0 0 1 .4.44c-.15 4.17 1.35 5.41 1.37 5.42a.43.43 0 0 1 .14.21l.67 2.17 4.19-1 2.15-2.16c-.79-1.25-1-4.22-1.07-4.86a.43.43 0 0 1 .39-.45.42.42 0 0 1 .45.39c.1 1.51.48 4.1 1.07 4.64a.37.37 0 0 1 .14.3.42.42 0 0 1-.12.3l-2.5 2.51a.45.45 0 0 1-.19.11L73 122.83zM69.8 105a4.08 4.08 0 1 0 4.08-4 4.08 4.08 0 0 0-4.08 4z"/>
    <path class="b" d="M73.88 101.36a3.66 3.66 0 1 0 3.65 3.64 3.66 3.66 0 0 0-3.65-3.66zm0 8.15a4.49 4.49 0 1 1 4.49-4.51 4.5 4.5 0 0 1-4.49 4.49zm-36 59l3.58 2.06V146l-3.62-2v24.5zm4 3.2a.54.54 0 0 1-.21-.05l-4.41-2.55a.42.42 0 0 1-.21-.36v-25.5a.41.41 0 0 1 .21-.36.4.4 0 0 1 .42 0l4.32 2.54a.44.44 0 0 1 .21.37v25.46a.41.41 0 0 1-.21.36.37.37 0 0 1-.21.06zm54.42 5.54v24.5l3.58-2.07v-24.5l-3.58 2.07zm-.41 25.64a.37.37 0 0 1-.21-.06.41.41 0 0 1-.21-.36V177a.44.44 0 0 1 .21-.37l4.41-2.54a.4.4 0 0 1 .42 0 .41.41 0 0 1 .21.36v25.45a.42.42 0 0 1-.21.36l-4.41 2.54a.42.42 0 0 1-.26.06z"/>
    <path class="b" d="M91.84 199.65l3.58 2.07v-24.5l-3.58-2.07v24.5zm4 3.21a.37.37 0 0 1-.21-.06l-4.41-2.54a.42.42 0 0 1-.21-.36v-25.47a.41.41 0 0 1 .21-.36.38.38 0 0 1 .41 0l4.37 2.54a.44.44 0 0 1 .21.37v25.46a.41.41 0 0 1-.21.36.36.36 0 0 1-.2.06z"/>
    <path class="b" d="M37.42 148.35l58.42 33.72v20.37l-4.41-2.54v-14.26L41.83 157v14.26l-4.41-2.54z"/>
    <path class="b" d="M91.84 199.65l3.58 2.07v-19.41l-57.58-33.24v19.41l3.58 2.06V157a.42.42 0 0 1 .2-.36.45.45 0 0 1 .42 0l49.59 28.63a.43.43 0 0 1 .21.36v14zm4 3.21a.37.37 0 0 1-.21-.06l-4.41-2.54a.42.42 0 0 1-.21-.36v-14l-48.76-28.17v13.53a.44.44 0 0 1-.21.37.45.45 0 0 1-.42 0l-4.41-2.55a.42.42 0 0 1-.21-.36v-20.38a.42.42 0 0 1 .21-.36.45.45 0 0 1 .42 0L96 181.71a.41.41 0 0 1 .21.36v20.37a.41.41 0 0 1-.21.36.37.37 0 0 1-.21.06z"/>
    <path class="b" d="M46.24 168.72l-4.41 2.54V157l4.41 2.55z"/>
    <path class="b" d="M46.24 168.72zm-4-11v12.81l3.58-2.07v-8.68l-3.58-2.06zm-.42 14a.54.54 0 0 1-.21-.05.44.44 0 0 1-.21-.37V157a.41.41 0 0 1 .21-.36.45.45 0 0 1 .42 0l4.41 2.55a.41.41 0 0 1 .21.36v9.17a.41.41 0 0 1-.21.36L42 171.63a.46.46 0 0 1-.17.05zm54 30.76v-20.41l58.41-33.73v20.38l-4.41 2.54V157l-49.59 28.63v14.27z"/>
    <path class="b" d="M96.25 182.31v19.41l3.58-2.07v-14a.43.43 0 0 1 .21-.36l49.59-28.63a.45.45 0 0 1 .42 0 .42.42 0 0 1 .21.36v13.54l3.57-2.07v-19.4l-57.58 33.22zm-.41 20.55a.37.37 0 0 1-.21-.06.41.41 0 0 1-.21-.36v-20.37a.41.41 0 0 1 .21-.36L154 148a.45.45 0 0 1 .42 0 .44.44 0 0 1 .21.37v20.37a.42.42 0 0 1-.21.36l-4.41 2.54a.4.4 0 0 1-.42 0 .41.41 0 0 1-.21-.36v-13.55l-48.76 28.15v14a.43.43 0 0 1-.21.36L96 202.8a.37.37 0 0 1-.21.06z"/>
    <path class="b" d="M37.42 143.25L95.84 177v5.09l-58.42-33.74z"/>
    <path class="b" d="M37.84 148.1l57.58 33.25v-4.13L37.84 144v4.12zm58 34.39a.37.37 0 0 1-.21-.06l-58.42-33.72a.44.44 0 0 1-.21-.37v-5.09a.41.41 0 0 1 .21-.36.4.4 0 0 1 .42 0L96 176.61a.44.44 0 0 1 .21.37v5.09a.41.41 0 0 1-.21.36.37.37 0 0 1-.21.06z"/>
    <path class="b" d="M154.25 143.25v5.1l-58.41 33.72V177z"/>
    <path class="b" d="M96.25 177.22v4.13l57.58-33.25V144l-57.58 33.22zm-.41 5.27a.37.37 0 0 1-.21-.06.41.41 0 0 1-.21-.36V177a.44.44 0 0 1 .21-.37L154 142.89a.4.4 0 0 1 .42 0 .41.41 0 0 1 .21.36v5.1a.43.43 0 0 1-.21.36L96 182.43a.37.37 0 0 1-.21.06z"/>
    <path class="b" d="M95.84 109.53l-58.42 33.72L95.84 177l58.41-33.73z"/>
    <path class="b" d="M38.26 143.25l57.58 33.24 57.57-33.24L95.84 110l-57.58 33.25zm57.58 34.15a.37.37 0 0 1-.21-.06l-58.42-33.73a.41.41 0 0 1 0-.72l58.42-33.73a.43.43 0 0 1 .41 0l58.42 33.73a.41.41 0 0 1 0 .72L96 177.34a.36.36 0 0 1-.21 0z"/>
    <path class="b" d="M68.34 125.31a.59.59 0 0 0 0 1.11l8.64 5a2.08 2.08 0 0 0 1.91 0l11.51-6.65a.58.58 0 0 0 0-1.1l-8.63-5a2.16 2.16 0 0 0-1.92 0z"/>
    <path class="b" d="M68.55 125.67c-.14.08-.19.16-.19.19s0 .11.19.19l8.64 5a1.69 1.69 0 0 0 1.49 0l11.51-6.65c.14-.08.19-.16.19-.19s0-.11-.19-.19l-8.64-5a1.7 1.7 0 0 0-1.49 0l-11.51 6.65zm9.38 6.38a2.32 2.32 0 0 1-1.16-.29l-8.64-5a1.09 1.09 0 0 1-.6-.92 1.07 1.07 0 0 1 .6-.91l11.52-6.65a2.52 2.52 0 0 1 2.33 0l8.63 5a1 1 0 0 1 0 1.82l-11.51 6.66a2.38 2.38 0 0 1-1.16.29z"/>
    <path class="b" d="M77.93 130.85c0 .61.43.85 1 .55l11.51-6.65a2.11 2.11 0 0 0 1-1.65v-10c0-.6-.43-.85-1-.55l-11.51 6.65a2.13 2.13 0 0 0-1 1.66v10z"/>
    <path class="b" d="M90.83 112.86a.53.53 0 0 0-.22.07l-11.51 6.65a1.71 1.71 0 0 0-.75 1.3v10c0 .16 0 .24.07.25s.12 0 .26-.06l11.51-6.65a1.71 1.71 0 0 0 .75-1.29v-10c0-.15 0-.24-.07-.25zM78.46 132a.93.93 0 0 1-.46-.12 1.09 1.09 0 0 1-.49-1v-10a2.57 2.57 0 0 1 1.17-2l11.51-6.65a1.09 1.09 0 0 1 1.1-.06 1.08 1.08 0 0 1 .49 1v10a2.57 2.57 0 0 1-1.17 2l-11.51 6.59a1.24 1.24 0 0 1-.64.24zm-7.82-13.82c1.44 2.21 4.57 3 4.67 3.91.26 2.55-2.46 1.82-2.46 1.82C68.94 122.68 67 118 67 118"/>
    <path class="b" d="M73.64 124.38a3.69 3.69 0 0 1-.9-.11c-4.06-1.24-6-5.9-6.14-6.1a.44.44 0 0 1 .23-.55.42.42 0 0 1 .55.23s1.92 4.5 5.59 5.61a2 2 0 0 0 1.61-.19 1.29 1.29 0 0 0 .31-1.19c0-.2-.8-.67-1.31-1a9.28 9.28 0 0 1-3.29-2.75.42.42 0 0 1 .12-.58.43.43 0 0 1 .58.12 8.85 8.85 0 0 0 3 2.49c1 .57 1.66 1 1.73 1.6a2.13 2.13 0 0 1-.6 1.92 2.28 2.28 0 0 1-1.49.46zm23.77 7.67c-2.32-1.34-2.32-3.54 0-4.87a9.36 9.36 0 0 1 8.44 0c2.32 1.33 2.32 3.53 0 4.87a9.36 9.36 0 0 1-8.44 0z"/>
    <path class="b" d="M101.63 126.6a8.22 8.22 0 0 0-4 .94 2.57 2.57 0 0 0-1.53 2.07 2.6 2.6 0 0 0 1.53 2.08 9 9 0 0 0 8 0 2.17 2.17 0 0 0 0-4.15 8.19 8.19 0 0 0-4-.94zm0 6.87a9.09 9.09 0 0 1-4.42-1.06 3 3 0 0 1 0-5.6 9.79 9.79 0 0 1 8.85 0 3 3 0 0 1 0 5.6 9 9 0 0 1-4.43 1.06z"/>
    <path class="b" d="M100.11 129.47a.93.93 0 0 1 0-1.76 3.35 3.35 0 0 1 3 0 .93.93 0 0 1 0 1.76 3.35 3.35 0 0 1-3 0z"/>
    <path class="b" d="M101.63 127.76a2.8 2.8 0 0 0-1.32.31c-.26.16-.42.35-.42.52s.16.37.42.52a3 3 0 0 0 2.64 0c.27-.15.42-.34.42-.52s-.15-.36-.42-.52a2.73 2.73 0 0 0-1.31-.31zm0 2.5a3.52 3.52 0 0 1-1.73-.42 1.34 1.34 0 0 1 0-2.49 3.73 3.73 0 0 1 3.47 0 1.34 1.34 0 0 1 0 2.49 3.56 3.56 0 0 1-1.74.42zm-2-7.62a1.25 1.25 0 0 1 0-2.36 4.55 4.55 0 0 1 4.07 0 1.25 1.25 0 0 1 0 2.36 4.55 4.55 0 0 1-4.1 0z"/>
    <path class="b" d="M101.63 120.22a3.68 3.68 0 0 0-1.82.43 1 1 0 0 0-.63.81c0 .29.22.58.63.82a4.11 4.11 0 0 0 3.65 0c.4-.24.63-.53.63-.82a1.06 1.06 0 0 0-.63-.81 3.7 3.7 0 0 0-1.83-.43zm0 3.33a4.48 4.48 0 0 1-2.24-.55 1.65 1.65 0 0 1 0-3.08 4.88 4.88 0 0 1 4.49 0 1.82 1.82 0 0 1 1.05 1.54 1.84 1.84 0 0 1-1.05 1.54 4.62 4.62 0 0 1-2.25.54z"/>
    <path class="b" d="M98.75 121.46a1.44 1.44 0 0 0 .84 1.18 4.58 4.58 0 0 0 4.08 0 1.44 1.44 0 0 0 .84-1.18l-.72 7.13a1.09 1.09 0 0 1-.63.89 3.43 3.43 0 0 1-3.06 0 1.09 1.09 0 0 1-.63-.89l-.72-7.13z"/>
    <path class="b" d="M99.33 123l.56 5.59a.69.69 0 0 0 .42.56 3 3 0 0 0 2.64 0c.27-.15.42-.34.42-.52l.57-5.63h-.06a4.88 4.88 0 0 1-4.49 0h-.06zm2.3 7.3a3.52 3.52 0 0 1-1.73-.42 1.49 1.49 0 0 1-.84-1.25l-.7-6.86a2.45 2.45 0 0 1 0-.27.42.42 0 0 1 .83 0v.17a1.21 1.21 0 0 0 .62.69 4.11 4.11 0 0 0 3.65 0 1.25 1.25 0 0 0 .62-.69v-.17a.45.45 0 0 1 .44-.38.42.42 0 0 1 .4.42 2.45 2.45 0 0 1 0 .27l-.7 6.91a1.49 1.49 0 0 1-.84 1.2 3.56 3.56 0 0 1-1.74.42zm-17.16 33.58c-2.32-1.34-2.32-3.53 0-4.87a9.36 9.36 0 0 1 8.44 0c2.32 1.34 2.32 3.53 0 4.87a9.36 9.36 0 0 1-8.44 0z"/>
    <path class="b" d="M84.68 163.52a9 9 0 0 0 8 0 2.17 2.17 0 0 0 0-4.15 9 9 0 0 0-8 0 2.17 2.17 0 0 0 0 4.15zm4 1.78a9 9 0 0 1-4.43-1.06 3 3 0 0 1 0-5.6 9.81 9.81 0 0 1 8.86 0 3 3 0 0 1 0 5.6 9.12 9.12 0 0 1-4.43 1z"/>
    <path class="b" d="M87.16 161.3a.93.93 0 0 1 0-1.76 3.43 3.43 0 0 1 3.06 0 .94.94 0 0 1 0 1.77 3.43 3.43 0 0 1-3.06 0z"/>
    <path class="b" d="M87.37 160.94a3 3 0 0 0 2.64 0c.27-.15.42-.34.42-.52s-.15-.36-.42-.52a3 3 0 0 0-2.64 0c-.27.16-.42.35-.42.52s.15.37.42.52zm1.32 1.15a3.58 3.58 0 0 1-1.74-.42 1.34 1.34 0 0 1 0-2.49 3.75 3.75 0 0 1 3.48 0 1.34 1.34 0 0 1 0 2.49 3.56 3.56 0 0 1-1.74.42zm-2-7.62a1.24 1.24 0 0 1 0-2.35 4.51 4.51 0 0 1 4.08 0 1.24 1.24 0 0 1 0 2.35 4.57 4.57 0 0 1-4.08 0z"/>
    <path class="b" d="M88.69 152.05a3.72 3.72 0 0 0-1.83.43.84.84 0 0 0 0 1.63 4.13 4.13 0 0 0 3.66 0 .84.84 0 0 0 0-1.63 3.72 3.72 0 0 0-1.83-.43zm0 3.33a4.63 4.63 0 0 1-2.25-.55 1.65 1.65 0 0 1 0-3.08 5 5 0 0 1 4.5 0 1.65 1.65 0 0 1 0 3.08 4.52 4.52 0 0 1-2.25.55z"/>
    <path class="b" d="M85.81 153.29a1.43 1.43 0 0 0 .84 1.18 4.57 4.57 0 0 0 4.08 0 1.44 1.44 0 0 0 .84-1.18l-.72 7.13a1.07 1.07 0 0 1-.63.88 3.37 3.37 0 0 1-3.06 0 1.07 1.07 0 0 1-.63-.88l-.72-7.13z"/>
    <path class="b" d="M86.39 154.79l.56 5.59a.67.67 0 0 0 .42.56 3 3 0 0 0 2.64 0c.27-.15.42-.34.42-.52l.57-5.63h-.06a4.9 4.9 0 0 1-4.5 0h-.06zm2.3 7.3a3.58 3.58 0 0 1-1.74-.42 1.51 1.51 0 0 1-.84-1.25l-.69-6.86a1.24 1.24 0 0 1 0-.27.42.42 0 0 1 .84 0v.17a1.25 1.25 0 0 0 .62.69 4.13 4.13 0 0 0 3.66 0 1.19 1.19 0 0 0 .61-.69v-.17a.43.43 0 0 1 .44-.38.43.43 0 0 1 .4.42 1.24 1.24 0 0 1 0 .27l-.7 6.9a1.47 1.47 0 0 1-.83 1.21 3.58 3.58 0 0 1-1.74.42zm7.48-6.09l17.71-10.22 13.7 7.91a8.89 8.89 0 0 1 4 6.95v11.18a8.9 8.9 0 0 0 4 6.95l4.84 2.79-17.69 10.24-4.84-2.8a8.93 8.93 0 0 1-4-6.95v-11.17a8.92 8.92 0 0 0-4-6.95L96.17 156z"/>
    <path class="b" d="M97 156l13.07 7.55a9.35 9.35 0 0 1 4.22 7.31v11.18a8.5 8.5 0 0 0 3.8 6.59l4.63 2.67 16.87-9.74-4.21-2.43a9.35 9.35 0 0 1-4.22-7.31v-11.17a7.75 7.75 0 0 0-1.12-3.74 7.84 7.84 0 0 0-2.68-2.84l-13.49-7.79L97 156zm25.72 36.2a.42.42 0 0 1-.21-.06l-4.84-2.79a9.36 9.36 0 0 1-4.22-7.31v-11.17a8.54 8.54 0 0 0-3.8-6.58L96 156.38a.41.41 0 0 1 0-.72l17.71-10.22a.4.4 0 0 1 .42 0l13.7 7.9a9.36 9.36 0 0 1 4.22 7.31v11.19a8.54 8.54 0 0 0 3.8 6.58l4.84 2.8a.41.41 0 0 1 0 .72l-17.71 10.22a.37.37 0 0 1-.21.06zm-66.91-43.4l24.42-14 15.08 8.7L71 157.52z"/>
    <path class="b" d="M56.65 148.8L71 157l23.5-13.57-14.24-8.22-23.61 13.59zM71 157.94a.36.36 0 0 1-.2-.06l-15.16-8.71a.42.42 0 0 1-.21-.37.4.4 0 0 1 .21-.36L80 134.4a.45.45 0 0 1 .42 0l15.07 8.71a.41.41 0 0 1 0 .72l-24.33 14a.37.37 0 0 1-.21.06zm13.68-37.17c.57-.33 1-.06 1 .61a2.34 2.34 0 0 1-1 1.81c-.58.34-1.05.06-1.05-.6a2.32 2.32 0 0 1 1.02-1.82z"/>
    <path class="b" d="M85.11 121.05a.54.54 0 0 0-.25.08 1.92 1.92 0 0 0-.84 1.46c0 .19 0 .29.1.31s.15 0 .32-.07a1.92 1.92 0 0 0 .84-1.45.41.41 0 0 0-.1-.32zm-.93 2.7a1 1 0 0 1-.48-.12 1.15 1.15 0 0 1-.52-1 2.73 2.73 0 0 1 1.26-2.18 1.16 1.16 0 0 1 1.16-.08 1.18 1.18 0 0 1 .51 1 2.76 2.76 0 0 1-1.25 2.18 1.49 1.49 0 0 1-.68.2zM41.83 112.5a4.07 4.07 0 1 0 3.66-4.45 4.07 4.07 0 0 0-3.66 4.45z"/>
    <path class="b" d="M45.89 108.45h-.36a3.68 3.68 0 0 0-2.47 1.32 3.67 3.67 0 1 0 2.83-1.33zm0 8.15a4.59 4.59 0 1 1 .44 0 3.24 3.24 0 0 1-.44 0zM28.1 59.22c0-2.83-2.05-4-4.55-2.53A10.09 10.09 0 0 0 19 64.56c0 2.89 2 4 4.54 2.53a10.23 10.23 0 0 0 4.55-7.87z"/>
    <path class="b" d="M22.44 65.74a.45.45 0 0 1-.37-.22l-1.13-2.07a.42.42 0 1 1 .73-.4l.75 1.36 3-6.09a.41.41 0 0 1 .56-.19.42.42 0 0 1 .19.56l-3.35 6.81a.41.41 0 0 1-.37.23zm5.66 9.87c0-2.83-2.05-4-4.55-2.53A10.09 10.09 0 0 0 19 81c0 2.89 2 4 4.54 2.54a10.26 10.26 0 0 0 4.55-7.87zm0 16.4c0-2.84-2.05-4-4.55-2.54A10.09 10.09 0 0 0 19 97.34c0 2.89 2 4 4.54 2.54A10.26 10.26 0 0 0 28.1 92z"/>
    <path class="b" d="M23.58 96.39a.41.41 0 0 1-.41-.42v-1.14a.44.44 0 0 1 .11-.29l.16-.17c.45-.47 1.28-1.35 1.28-1.9s-.1-.69-.44-.69c-.6 0-1.37 1.14-1.64 1.7a.43.43 0 0 1-.56.18.41.41 0 0 1-.19-.56c.11-.22 1.11-2.16 2.39-2.16.85 0 1.28.52 1.28 1.53S24.65 94.32 24 95v1a.42.42 0 0 1-.42.39zm0 1.83a.41.41 0 0 1-.41-.42v-.17a.41.41 0 0 1 .41-.42.42.42 0 0 1 .42.42v.17a.42.42 0 0 1-.42.42z"/>
    <path class="b" d="M23.58 98.22a.41.41 0 0 1-.41-.42v-.17a.41.41 0 0 1 .41-.42.42.42 0 0 1 .42.42v.17a.42.42 0 0 1-.42.42zm0-18.63a.41.41 0 0 1-.41-.42v-4a.41.41 0 0 1 .41-.42.42.42 0 0 1 .42.42v4a.42.42 0 0 1-.42.42zm0 2a.41.41 0 0 1-.41-.42V81a.41.41 0 0 1 .41-.42.42.42 0 0 1 .42.42v.17a.42.42 0 0 1-.42.47zM32.08 55l19.44-11.19M32.08 55.87a.82.82 0 0 1-.72-.42.83.83 0 0 1 .3-1.14L51.1 43.09a.82.82 0 0 1 1.14.3.84.84 0 0 1-.3 1.15L32.5 55.76a.91.91 0 0 1-.42.11zm0 3.31l22.41-12.94M32.08 59.6a.43.43 0 0 1-.36-.21.41.41 0 0 1 .15-.57l22.41-12.94a.42.42 0 0 1 .42.72L32.29 59.54a.37.37 0 0 1-.21.06zm0 2.71l16.34-9.43m-16.34 9.85a.43.43 0 0 1-.36-.21.41.41 0 0 1 .15-.57l16.34-9.44a.44.44 0 0 1 .58.16.43.43 0 0 1-.16.57l-16.34 9.43a.39.39 0 0 1-.21.06zm0 8.6l19.44-11.22M32.08 72.17a.82.82 0 0 1-.72-.42.83.83 0 0 1 .3-1.14L51.1 59.39a.82.82 0 0 1 1.14.3.83.83 0 0 1-.3 1.14L32.5 72.05a.81.81 0 0 1-.42.12zm0 3.31l22.41-12.94M32.08 75.9a.43.43 0 0 1-.36-.21.41.41 0 0 1 .15-.57l22.41-12.94a.42.42 0 1 1 .42.72L32.29 75.84a.37.37 0 0 1-.21.06zm0 2.71l16.34-9.44M32.08 79a.43.43 0 0 1-.36-.21.41.41 0 0 1 .15-.57l16.34-9.44a.42.42 0 1 1 .42.73L32.29 79a.39.39 0 0 1-.21.06zm0 8.6l19.44-11.19m-19.44 12a.83.83 0 0 1-.72-.41.84.84 0 0 1 .3-1.15L51.1 75.68a.84.84 0 0 1 .84 1.45L32.5 88.35a.8.8 0 0 1-.42.11zm0 3.32l22.41-12.89M32.08 92.19a.42.42 0 0 1-.21-.78l22.41-12.93a.42.42 0 0 1 .42.72L32.29 92.14a.36.36 0 0 1-.21 0zm0 2.72l16.34-9.44m-16.34 9.85a.42.42 0 0 1-.21-.78l16.34-9.43a.42.42 0 1 1 .42.72l-16.34 9.44a.38.38 0 0 1-.21 0zm23.68-5.24l-35.86 20.7m0 .42a.42.42 0 0 1-.21-.78l35.86-20.71a.43.43 0 0 1 .57.16.41.41 0 0 1-.15.57l-35.86 20.7a.42.42 0 0 1-.21.06zM48 97.63l-28.1 16.2m0 .42a.39.39 0 0 1-.36-.21.41.41 0 0 1 .15-.57l28.07-16.2a.42.42 0 0 1 .42.72L20.11 114.2a.41.41 0 0 1-.21 0zm54.38-34.87l-15.41 8.9m0 .42a.42.42 0 0 1-.21-.78L74.07 79a.42.42 0 1 1 .42.72l-15.41 8.9a.42.42 0 0 1-.21.06zm15.41-6.26L50.85 96m0 .42a.44.44 0 0 1-.37-.21.42.42 0 0 1 .16-.57l23.43-13.56a.42.42 0 1 1 .42.72L51.06 96.33a.42.42 0 0 1-.21.06zm10-18.09l13.43-7.75m-13.43 8.14a.42.42 0 0 1-.21-.78l13.43-7.76a.42.42 0 0 1 .57.16.41.41 0 0 1-.15.57l-13.43 7.75a.42.42 0 0 1-.21.06zm2.28-4.83l11.15-6.44m-11.15 6.86a.44.44 0 0 1-.37-.21.42.42 0 0 1 .16-.57l11.15-6.44a.42.42 0 1 1 .42.72l-11.16 6.44a.37.37 0 0 1-.21.06zm-2.28-2.2l13.43-7.75m-13.43 8.17a.39.39 0 0 1-.36-.21.41.41 0 0 1 .15-.57L74.07 64a.42.42 0 1 1 .42.72l-13.43 7.76a.54.54 0 0 1-.21 0zm2.72-32.24l10.71-6.18m-10.71 6.6a.44.44 0 0 1-.37-.21.42.42 0 0 1 .16-.57l10.71-6.19a.42.42 0 0 1 .57.16.41.41 0 0 1-.15.57l-10.71 6.18a.42.42 0 0 1-.21.06zm-2.72-1.94L74.28 31m-13.43 8.19a.42.42 0 0 1-.21-.78l13.43-7.76a.42.42 0 0 1 .42.72l-13.43 7.76a.42.42 0 0 1-.21.06zm0 5.76l13.43-7.75m-13.43 8.17a.39.39 0 0 1-.36-.21.41.41 0 0 1 .15-.57l13.43-7.75a.42.42 0 1 1 .42.72l-13.43 7.75a.42.42 0 0 1-.21.06zm2.72 1.11l10.71-6.19m-10.71 6.6a.42.42 0 0 1-.37-.21.43.43 0 0 1 .16-.57l10.71-6.18a.42.42 0 1 1 .42.72l-10.71 6.19a.41.41 0 0 1-.21 0zM60.85 58.4l13.43-7.76m-13.43 8.18a.42.42 0 0 1-.21-.78l13.43-7.76a.42.42 0 1 1 .42.72l-13.43 7.76a.42.42 0 0 1-.21.06zm2.72-5.08l10.71-6.19m-10.71 6.6a.42.42 0 0 1-.37-.21.43.43 0 0 1 .16-.57l10.71-6.18a.42.42 0 1 1 .42.72L63.77 54.1a.36.36 0 0 1-.21 0zm0 5.77l10.71-6.18m-10.71 6.6a.44.44 0 0 1-.37-.21.42.42 0 0 1 .16-.57l10.71-6.19a.42.42 0 0 1 .57.16.41.41 0 0 1-.15.57l-10.71 6.18a.42.42 0 0 1-.21.06zm-2.72 4.24l13.43-7.75M60.85 65a.39.39 0 0 1-.36-.21.41.41 0 0 1 .15-.57l13.43-7.75a.42.42 0 1 1 .42.72l-13.43 7.75a.42.42 0 0 1-.21.06zM86.38 6.29l-3.06-2L4.88 49.54l3.06 2z"/>
    <path class="b" d="M5.68 49.56L8 51.08 85.58 6.26 83.3 4.74 5.68 49.56zM7.94 52a.39.39 0 0 1-.23-.07l-3.06-2a.4.4 0 0 1-.18-.36.39.39 0 0 1 .21-.35L83.11 3.89a.41.41 0 0 1 .44 0l3.06 2a.4.4 0 0 1 .18.36.39.39 0 0 1-.21.35L8.15 51.94a.5.5 0 0 1-.21.05z"/>
    <path class="b" d="M7.94 51.58l-3.05-2V132l3.05 2z"/>
    <path class="b" d="M5.3 131.73l2.22 1.48V51.8L5.3 50.32v81.41zm2.64 2.68a.39.39 0 0 1-.23-.07l-3.06-2a.44.44 0 0 1-.18-.35V49.54a.4.4 0 0 1 .22-.37.44.44 0 0 1 .43 0l3.05 2a.42.42 0 0 1 .19.35V134a.42.42 0 0 1-.22.37.35.35 0 0 1-.2 0zM116.9 148l17.88-10.33-14.06-8.12-17.89 10.33z"/>
    <path class="b" d="M103.67 139.83l13.22 7.63 17-9.84-13.17-7.62-17 9.84zm13.22 8.53a.41.41 0 0 1-.21-.05l-14.06-8.12a.42.42 0 0 1 0-.72l17.89-10.33a.45.45 0 0 1 .42 0l14.07 8.12a.41.41 0 0 1 0 .72l-17.9 10.33a.36.36 0 0 1-.21.05z"/>
    <path class="b" d="M124.23 136c2.29 1.33 2.29 3.49 0 4.81a9.19 9.19 0 0 1-8.33 0c-2.29-1.32-2.29-3.48 0-4.81a9.26 9.26 0 0 1 8.33 0z"/>
    <path class="b" d="M118.43 137.3c1.71 1 1.71 2.62 0 3.61a6.93 6.93 0 0 1-6.24 0c-1.72-1-1.72-2.62 0-3.61a6.93 6.93 0 0 1 6.24 0zm-2.34 17.93a.54.54 0 0 0 0-1l-5-2.85a2 2 0 0 0-1.76 0l-7.14 4.12a.54.54 0 0 0 0 1l4.94 2.85a2 2 0 0 0 1.76 0l7.15-4.12zm-5.53 5.87l4.45-2.57m-4.45 3a.44.44 0 0 1-.37-.21.42.42 0 0 1 .16-.57l4.45-2.57a.42.42 0 0 1 .42.72l-4.45 2.57a.42.42 0 0 1-.21.06z"/>
    <path class="b" d="M111.32 142.06h8.19l13.79 8-14.06 8.12-17.89-10.33z"/>
    <path class="b" d="M102.19 147.81l17 9.84 13.27-7.65-13.06-7.55h-8zm17 10.75a.39.39 0 0 1-.21-.06l-17.89-10.33a.41.41 0 0 1 0-.72l10-5.76a.54.54 0 0 1 .21-.05h8.19a.54.54 0 0 1 .21.05l13.79 8a.41.41 0 0 1 .21.36.42.42 0 0 1-.21.36l-14.06 8.12a.54.54 0 0 1-.21.05z"/>
    <path class="b" d="M111.32 142.06l4.11 2.4 4.08-2.4z"/>
    <path class="b" d="M112.86 142.47l2.57 1.51 2.54-1.51zm2.57 2.41a.39.39 0 0 1-.21-.06l-4.11-2.4a.42.42 0 0 1-.19-.47.41.41 0 0 1 .4-.31h8.19a.41.41 0 0 1 .4.31.42.42 0 0 1-.19.47l-4.08 2.4a.39.39 0 0 1-.21.06zm9.3 6l-5.49 3.17m0 .42a.41.41 0 0 1-.36-.21.41.41 0 0 1 .15-.57l5.49-3.17a.41.41 0 0 1 .57.15.42.42 0 0 1-.15.58l-5.49 3.17a.54.54 0 0 1-.21 0zm5.37-6l-7.45 4.3m0 .42a.39.39 0 0 1-.36-.21.41.41 0 0 1 .15-.57l7.45-4.3a.41.41 0 0 1 .57.15.42.42 0 0 1-.16.57l-7.44 4.31a.54.54 0 0 1-.21.05zm3.22-4.72l-5.3 3.07m0 .41a.39.39 0 0 1-.36-.21.41.41 0 0 1 .15-.57l5.3-3.06a.42.42 0 0 1 .57.16.41.41 0 0 1-.15.57l-5.3 3.06a.41.41 0 0 1-.21.05zm-.62-4.94l-3.54 2.05m0 .42a.42.42 0 0 1-.21-.78l3.54-2.05a.42.42 0 0 1 .57.16.41.41 0 0 1-.15.57l-3.54 2a.42.42 0 0 1-.21.06zm1.06-3.47l-3.14 1.81m0 .42a.4.4 0 0 1-.36-.21.41.41 0 0 1 .15-.57l3.14-1.81a.41.41 0 0 1 .57.15.42.42 0 0 1-.16.57l-3.13 1.81a.42.42 0 0 1-.21.06zm8.3 11.53l-4.78 2.75m0 .42a.41.41 0 0 1-.36-.21.43.43 0 0 1 .16-.57l4.77-2.75a.41.41 0 0 1 .57.15.42.42 0 0 1-.15.57l-4.78 2.76a.38.38 0 0 1-.21.05zm9.76-3.81L113.7 164m0 .42a.42.42 0 0 1-.36-.21.41.41 0 0 1 .15-.57l8.42-4.86a.42.42 0 0 1 .42.72l-8.42 4.86a.39.39 0 0 1-.21.06zm7.21-2.21l-5.91 3.43m0 .42a.39.39 0 0 1-.36-.21.41.41 0 0 1 .15-.57l5.88-3.39a.41.41 0 0 1 .57.15.42.42 0 0 1-.16.57l-5.87 3.4a.54.54 0 0 1-.21.05zm9-3l-8.42 4.86m0 .42a.43.43 0 0 1-.36-.21.42.42 0 0 1 .15-.57l8.42-4.86a.42.42 0 1 1 .42.72l-8.42 4.86a.39.39 0 0 1-.21.06zm11.34-12l-3.28 1.89m0 .42a.43.43 0 0 1-.36-.21.42.42 0 0 1 .16-.57l3.27-1.89a.42.42 0 0 1 .42.72l-3.28 1.89a.37.37 0 0 1-.21.06zm-6.5 11.15a2 2 0 0 0-.88 1.53v8.91c0 .56.39.79.88.51l11.24-6.5a2 2 0 0 0 .89-1.52v-8.91c0-.56-.4-.79-.89-.51l-11.24 6.49zm11.14-11.8l-5.76 3.33m0 .41a.41.41 0 0 1-.36-.21.42.42 0 0 1 .16-.57l5.75-3.32a.42.42 0 1 1 .42.72l-5.75 3.33a.54.54 0 0 1-.21 0zm6.53-1.56l-3.43 2m0 .41a.42.42 0 0 1-.37-.21.43.43 0 0 1 .16-.57l3.43-2a.43.43 0 0 1 .58.15.42.42 0 0 1-.16.57l-3.43 2a.41.41 0 0 1-.21.04zm-.62 15.86l-8.18 4.73m0 .41a.42.42 0 0 1-.21-.78l8.18-4.72a.42.42 0 0 1 .42.72l-8.18 4.73a.41.41 0 0 1-.21.05zm13-7.91l-2.91 1.68m0 .42a.43.43 0 0 1-.36-.21.42.42 0 0 1 .16-.57l2.9-1.68a.42.42 0 1 1 .42.72l-2.91 1.68a.37.37 0 0 1-.21.06zm-5.44 5.33l-3.58 2.06m0 .42a.42.42 0 0 1-.21-.78l3.58-2.06a.41.41 0 1 1 .41.72l-3.57 2.06a.42.42 0 0 1-.21.06zm13-7.91l-7.75 4.48m0 .41a.42.42 0 0 1-.37-.21.43.43 0 0 1 .16-.57l7.75-4.47a.42.42 0 0 1 .42.72l-7.76 4.48a.46.46 0 0 1-.21 0zm12.21-.5a.54.54 0 0 0 0-1l-2.22-1.28a2 2 0 0 0-1.77 0l-11.42 6.6a.53.53 0 0 0 0 1l2.23 1.29a2 2 0 0 0 1.76 0l11.42-6.6zm-69.41-37.8c-3.35 1.93-3.35 5.09 0 7a13.49 13.49 0 0 0 12.16 0c3.35-1.93 3.35-5.09 0-7a13.43 13.43 0 0 0-12.16 0zm14.66-2.81c-1.72 1-1.72 2.61 0 3.6a6.93 6.93 0 0 0 6.24 0c1.72-1 1.72-2.61 0-3.6a6.93 6.93 0 0 0-6.24 0z"/>
    <path class="b" d="M66.27 132.12a1.36 1.36 0 0 1 1.34-.14l12.55 7.3-12 6.91L55 138.61l11.23-6.49z"/>
    <path class="b" d="M55.88 138.61l12.34 7.12 11.14-6.43-11.91-6.94a1 1 0 0 0-.94.14l-10.6 6.12zm12.34 8a.46.46 0 0 1-.21 0L54.83 139a.41.41 0 0 1-.21-.36.44.44 0 0 1 .21-.37l11.23-6.48a1.82 1.82 0 0 1 1.7-.18h.07l12.58 7.32a.4.4 0 0 1 .2.36.42.42 0 0 1-.21.36l-12 6.91a.42.42 0 0 1-.21.06z"/>
    <path class="b" d="M68.22 146.21l11.22-6.42c1.08-.61 2-.11 2 1.13a4.31 4.31 0 0 1-2 3.38l-11.22 6.48c1.88-2.78 0-4.57 0-4.57z"/>
    <path class="b" d="M68.85 146.34a3.67 3.67 0 0 1 .37 3.37l10-5.78a3.89 3.89 0 0 0 1.73-3 1 1 0 0 0-.36-.9 1 1 0 0 0-1 .13l-10.8 6.18zm-.63 4.86a.44.44 0 0 1-.31-.13.42.42 0 0 1 0-.52c1.65-2.48.13-4 .06-4a.42.42 0 0 1-.13-.35.44.44 0 0 1 .21-.32l11.23-6.42a1.6 1.6 0 0 1 2.57 1.49 4.71 4.71 0 0 1-2.16 3.74l-11.22 6.48a.42.42 0 0 1-.21.06z"/>
    <path class="b" d="M79.44 139.79a3.23 3.23 0 0 1-.54.25l-.17.1 1.47-.84.58.34a1.4 1.4 0 0 0-1.33.15z"/>
    <path class="b" d="M78.74 140.56a.42.42 0 0 1-.37-.21.43.43 0 0 1 .16-.57l.16-.1 1.29-.74a.4.4 0 0 1 .42 0l.58.34a.43.43 0 0 1 .2.26.46.46 0 0 1-.06.33.44.44 0 0 1-.55.15 1 1 0 0 0-.93.14l-.27.14a1.33 1.33 0 0 0-.28.12l-.16.09a.5.5 0 0 1-.21.05zM55 138.61l13.18 7.6s1.88 1.74 0 4.57l-13.17-7.61c1.85-2.77 0-4.56 0-4.56z"/>
    <path class="b" d="M55.63 143l12.44 7.19c1.22-2.13.1-3.45-.11-3.67l-11.83-6.83a4.11 4.11 0 0 1-.5 3.31zm12.59 8.17a.39.39 0 0 1-.21-.06l-13.17-7.61a.41.41 0 0 1-.2-.26.39.39 0 0 1 .06-.33c1.62-2.43.11-4 0-4a.41.41 0 0 1 0-.55.41.41 0 0 1 .54-.11l13.18 7.6.07.06s2.12 2 .06 5.1a.42.42 0 0 1-.35.19z"/>
    <path class="d" d="M146.26 168.72l3.58 2.06 3.57-2.06-3.57-2.07-3.58 2.07zm3.58 3a.5.5 0 0 1-.21-.05l-4.41-2.55a.42.42 0 0 1-.21-.36.44.44 0 0 1 .21-.37l4.41-2.54a.4.4 0 0 1 .42 0l4.41 2.54a.42.42 0 0 1 .21.36.44.44 0 0 1-.21.37l-4.41 2.54a.42.42 0 0 1-.21.06z"/>
    <path class="d" d="M150.26 146v24.5l3.57-2.07V144zm-.42 25.64a.5.5 0 0 1-.21-.05.44.44 0 0 1-.21-.37V145.8a.41.41 0 0 1 .21-.36l4.41-2.55a.4.4 0 0 1 .42 0 .41.41 0 0 1 .21.36v25.47a.42.42 0 0 1-.21.36l-4.41 2.54a.42.42 0 0 1-.21.06z"/>
    <path class="j" d="M149.84 171.26l-4.41-2.54v-9.17l4.41-2.55"/>
    <path class="d" d="M145.85 168.48l3.57 2.06v-12.81l-3.57 2.06v8.68zm4 3.2a.5.5 0 0 1-.21-.05l-4.41-2.55a.42.42 0 0 1-.21-.36v-9.17a.41.41 0 0 1 .21-.36l4.41-2.55a.45.45 0 0 1 .42 0 .41.41 0 0 1 .21.36v14.26a.44.44 0 0 1-.21.37.54.54 0 0 1-.21.05z"/>
    <path class="e" d="M86.38 6.29L7.94 51.58V134l78.44-45.29"/>
    <path class="d" d="M8.36 51.82v81.45L86 88.47V7zm-.42 82.59a.54.54 0 0 1-.21 0 .42.42 0 0 1-.21-.36V51.58a.44.44 0 0 1 .21-.37L86.17 5.93a.4.4 0 0 1 .42 0 .42.42 0 0 1 .2.36v82.42a.41.41 0 0 1-.21.36L8.15 134.36a.39.39 0 0 1-.21.06z"/>
    <path class="f" d="M12.55 136.65L7.94 134l78.44-45.29L91 91.37"/>
    <path class="d" d="M8.78 134l3.77 2.17 77.59-44.8-3.76-2.18zm3.77 3.07a.46.46 0 0 1-.21 0l-4.61-2.66a.42.42 0 0 1-.21-.36.44.44 0 0 1 .21-.37l78.44-45.33a.4.4 0 0 1 .42 0l4.6 2.65a.41.41 0 0 1 0 .72L12.76 137a.54.54 0 0 1-.21 0z"/>
    <path class="c" d="M82.3 13.35v73L12 126.94v-73"/>
    <path class="d" d="M12.43 54.17v72l69.45-40.05V14.07zM12 127.36a.36.36 0 0 1-.2-.06.41.41 0 0 1-.21-.36v-73a.44.44 0 0 1 .21-.37L82.09 13a.45.45 0 0 1 .42 0 .44.44 0 0 1 .21.37v73a.42.42 0 0 1-.21.36L12.22 127.3a.37.37 0 0 1-.22.06zM38.26 148.35l57.58 33.24 57.57-33.24-57.57-33.25-57.58 33.25zm57.58 34.14a.37.37 0 0 1-.21-.06l-58.42-33.72a.44.44 0 0 1-.21-.37.42.42 0 0 1 .21-.36l58.42-33.72a.38.38 0 0 1 .41 0L154.46 148a.42.42 0 0 1 .21.36.44.44 0 0 1-.21.37L96 182.43a.37.37 0 0 1-.21.06zm-3.58 17.41l3.58 2.1 3.57-2.06-3.57-2.07-3.58 2.07zm3.58 3a.37.37 0 0 1-.21-.06l-4.41-2.54a.42.42 0 0 1-.21-.36.44.44 0 0 1 .21-.37l4.41-2.57a.4.4 0 0 1 .42 0l4.41 2.54a.44.44 0 0 1 .21.37.42.42 0 0 1-.21.36l-4.41 2.54a.42.42 0 0 1-.21.05zm-57.58-34.18l3.57 2.06 3.58-2.06-3.58-2.07-3.57 2.07zm3.57 3a.54.54 0 0 1-.21-.05l-4.41-2.55a.42.42 0 0 1-.21-.36.44.44 0 0 1 .21-.37l4.41-2.54a.4.4 0 0 1 .42 0l4.41 2.54a.42.42 0 0 1 .21.36.44.44 0 0 1-.21.37l-4.45 2.5a.37.37 0 0 1-.21.06z"/>
    <path class="c" d="M50.45 139.22l.87-.78a5.21 5.21 0 0 1 4.68-1.26 1.43 1.43 0 0 0-.07-.39c-.57-1.93-4.38-2.26-4.38-2.26l6.27.45c1-.52 3.78-3.19 1.46-6s-5.85-.48-5.85-.48a2.36 2.36 0 0 1-.36-1.07l1-2.77-.61-4-4-1.66h-4.89L41 120.22l-.75 3.78 3.24 5.49s1.13 9.83 6.96 9.73z"/>
    <path class="d" d="M49.82 146.41zm.47 0a6.34 6.34 0 0 0 2.22 1.08 5.32 5.32 0 0 0 2.07.38c-.32-1.26.08-3.53.5-5.93.36-2 .73-4.16.48-5-.4-1.35-3-1.88-4-2a.42.42 0 0 1 .07-.84l6.14.45a4.71 4.71 0 0 0 2-2.75 3 3 0 0 0-.75-2.59c-2-2.51-5.16-.48-5.29-.39a.42.42 0 0 1-.31.06.42.42 0 0 1-.27-.18 2.84 2.84 0 0 1-.43-1.29.41.41 0 0 1 0-.16l1-2.67-.54-3.66-3.79-1.53h-4.75l-3.26 1.14-.68 3.35 3.15 5.35a.49.49 0 0 1 .06.17c0 .1 1.21 10 6.94 9.38a.45.45 0 0 1 .33.12.42.42 0 0 1 .13.32c0 .6-.41 5.58-1 7.15zm4.09 2.31a6.38 6.38 0 0 1-1.65-.28c-.12 0-3.08-.87-3.32-1.9a.45.45 0 0 1 0-.3c.46-.85.83-4.66 1-6.56h-.08c-5.81 0-7.13-9-7.26-10.06l-3.2-5.42a.42.42 0 0 1 0-.29l.76-3.74a.43.43 0 0 1 .28-.32l3.55-1.23a.34.34 0 0 1 .14 0h4.89a.45.45 0 0 1 .16 0l4.08 1.64a.42.42 0 0 1 .26.33l.6 4a.39.39 0 0 1 0 .21l-1 2.69a1.3 1.3 0 0 0 .1.41c1.47-.8 4.16-1.45 6 .81a3.83 3.83 0 0 1 .92 3.28 5.53 5.53 0 0 1-2.5 3.38.37.37 0 0 1-.23.05l-2.66-.19a2.69 2.69 0 0 1 1.2 1.46c.3 1-.07 3.14-.46 5.39s-.81 4.61-.5 5.64a.67.67 0 0 1-.15.71c-.08.09-.27.28-.87.28z"/>
    <path class="c" d="M42.35 125.21C51.28 117.37 53 123.1 53 123.1a15.27 15.27 0 0 0-5.35 3.76c-5.63 6-9.45.43-9.52-4.17s8.58-5.46 8.58-5.46 9.11-.85 9.49 5.91c.29 5.17-6.17 5.1-8.55 3.72"/>
    <path class="d" d="M47.61 117.61h-.89c-.02 0-8.26.88-8.19 5 0 2.39 1.2 5.37 3.3 6.18 1.61.62 3.51-.16 5.49-2.28a16.09 16.09 0 0 1 5.1-3.68 2.54 2.54 0 0 0-1.56-1.27c-1.31-.37-3.8 0-8.24 3.92a.42.42 0 0 1-.59 0 .41.41 0 0 1 0-.59c3.8-3.34 6.84-4.72 9-4.09a3.44 3.44 0 0 1 2.35 2.2.43.43 0 0 1-.26.52 15 15 0 0 0-4.79 3.24 7.25 7.25 0 0 0 5.86-.24 3.38 3.38 0 0 0 1.57-3.33 5 5 0 0 0-1.76-3.71c-1.91-1.65-4.94-1.87-6.43-1.87m-4.67 12.3a4 4 0 0 1-1.41-.26c-2.47-1-3.8-4.22-3.84-7-.07-4.92 8.58-5.84 9-5.88.21 0 5.07-.44 7.94 2a5.82 5.82 0 0 1 2 4.27 4.2 4.2 0 0 1-2 4.09 8.06 8.06 0 0 1-6.91.17c-1.9 1.94-3.51 2.53-4.77 2.53"/>
    <path class="c" d="M47.12 121.87a22.52 22.52 0 0 0-4.77 3.34c-.21-.53-1-2.65.92-3.85a3.19 3.19 0 0 1 3.85.51"/>
    <path class="d" d="M47.12 121.87zm0 0zm-2.29-.56a2.47 2.47 0 0 0-1.34.41 2.34 2.34 0 0 0-.94 2.77 23.51 23.51 0 0 1 3.8-2.69 2.82 2.82 0 0 0-1.52-.49zm-2.48 4.32h-.09a.41.41 0 0 1-.29-.25c-.28-.69-1-3 1.08-4.36a3.3 3.3 0 0 1 3.5-.06c.37.2 1 .59 1 .92a.42.42 0 0 1-.24.38 22.17 22.17 0 0 0-4.67 3.28.42.42 0 0 1-.29.09z"/>
    <path class="c" d="M55.41 130.3c-1.54.28-9.69 3.65-10.28 5.42s2.45 5.9 3.19 3.86 8.56-4.08 9.53-4.6"/>
    <path class="d" d="M47.69 140.55a1.22 1.22 0 0 1-.41-.07c-1.36-.48-3.06-3.39-2.55-4.9.71-2.1 9.3-5.46 10.6-5.69a.42.42 0 1 1 .15.82c-1.74.32-9.47 3.71-10 5.14-.36 1.07 1.06 3.5 2 3.84.13 0 .25.08.37-.25.57-1.59 4.27-2.95 8-4.21.81-.27 1.5-.51 1.71-.62a.42.42 0 0 1 .4.74 15.82 15.82 0 0 1-1.84.67c-2.28.77-7 2.36-7.5 3.71a1.09 1.09 0 0 1-1 .82"/>
    <path class="c" d="M67 118a9.76 9.76 0 0 1-.06-2.2c0-.15 0-.28.06-.42s0-.23 0-.34a3.37 3.37 0 0 1 .12-.48 1.68 1.68 0 0 1 .06-.24c1-3.21 4.35-3.76 6.36-4.06 2.84-.42 7-.89 10.06 5.69 0 0 .76 5.6-2.17 7.89 0 0-2.71-.51-2.76-1.65 0 0 1.32-1.36 1.53-5 0 0-.74-2.25-2.28-2.71l-4 2.25-3.35-1.2a7 7 0 0 0 0 2.63"/>
    <path class="d" d="M81.46 124.28h-.07c-.51-.09-3-.64-3.1-2a.41.41 0 0 1 .11-.3s1.2-1.31 1.41-4.7a4.24 4.24 0 0 0-1.81-2.37l-3.83 2.15a.43.43 0 0 1-.35 0l-2.9-1a8.73 8.73 0 0 0 .14 2 .41.41 0 0 1-.33.49.41.41 0 0 1-.49-.33 7.16 7.16 0 0 1 0-2.85.47.47 0 0 1 .22-.24.44.44 0 0 1 .32 0l3.17 1.13 3.83-2.16a.42.42 0 0 1 .33 0c1.73.52 2.53 2.87 2.56 3a.44.44 0 0 1 0 .16 9.41 9.41 0 0 1-1.5 5.14c.2.45 1.31.9 2.2 1.09 2.38-2.06 1.94-6.73 1.87-7.32-3-6.37-7-5.78-9.59-5.4-2.44.37-5.12 1-6 3.77v.19c0 .17-.08.3-.11.45v.64a.09.09 0 0 1 0 .07 10.7 10.7 0 0 0 .06 2.1.42.42 0 0 1-.36.47.4.4 0 0 1-.46-.36 9.74 9.74 0 0 1-.07-2.21.09.09 0 0 1 0-.07 1.55 1.55 0 0 1 0-.32v-.23a1.87 1.87 0 0 1 0-.25 3.37 3.37 0 0 1 .12-.48v-.12a.85.85 0 0 1 0-.17c1.15-3.47 4.74-4 6.68-4.29 2.69-.41 7.2-1.08 10.5 5.92a.27.27 0 0 1 0 .12c0 .24.76 5.87-2.32 8.28a.39.39 0 0 1-.26.09"/>
    <path class="c" d="M78.84 113.85s.27 4.07 1.21 4.92l-2.49 2.51-4.69 1.14-.79-2.54s-1.69-1.28-1.52-5.78"/>
    <path class="d" d="M72.87 122.84a.42.42 0 0 1-.4-.29l-.75-2.44c-.41-.39-1.73-2-1.58-6a.43.43 0 0 1 .43-.41.42.42 0 0 1 .4.44c-.15 4.17 1.35 5.41 1.37 5.42a.43.43 0 0 1 .14.21l.67 2.17 4.19-1 2.15-2.16c-.79-1.25-1-4.22-1.07-4.86a.43.43 0 0 1 .39-.45.42.42 0 0 1 .45.39c.1 1.51.48 4.1 1.07 4.64a.37.37 0 0 1 .14.3.42.42 0 0 1-.12.3l-2.5 2.51a.45.45 0 0 1-.19.11L73 122.83h-.1"/>
    <path class="c" d="M69.8 105a4.08 4.08 0 1 0 4.08-4 4.08 4.08 0 0 0-4.08 4"/>
    <path class="d" d="M73.88 101.36a3.66 3.66 0 1 0 3.65 3.64 3.66 3.66 0 0 0-3.65-3.66m0 8.15a4.5 4.5 0 1 1 4.49-4.5 4.51 4.51 0 0 1-4.49 4.5m-36 59l3.58 2.06V146l-3.62-2v24.5zm4 3.2a.54.54 0 0 1-.21-.05l-4.41-2.55a.42.42 0 0 1-.21-.36v-25.48a.41.41 0 0 1 .21-.36.4.4 0 0 1 .42 0l4.32 2.54a.44.44 0 0 1 .21.37v25.46a.41.41 0 0 1-.21.36.37.37 0 0 1-.21.06zm54.42 5.54v24.5l3.58-2.07v-24.5l-3.58 2.07zm-.41 25.64a.37.37 0 0 1-.21-.06.41.41 0 0 1-.21-.36V177a.44.44 0 0 1 .21-.37l4.41-2.54a.4.4 0 0 1 .42 0 .41.41 0 0 1 .21.36v25.45a.42.42 0 0 1-.21.36l-4.41 2.54a.42.42 0 0 1-.26.06z"/>
    <path class="d" d="M91.84 199.65l3.58 2.07v-24.5l-3.58-2.07v24.5zm4 3.21a.37.37 0 0 1-.21-.06l-4.41-2.54a.42.42 0 0 1-.21-.36v-25.47a.41.41 0 0 1 .21-.36.38.38 0 0 1 .41 0l4.37 2.54a.44.44 0 0 1 .21.37v25.46a.41.41 0 0 1-.21.36.36.36 0 0 1-.2.06z"/>
    <path class="e" d="M37.42 148.35l58.42 33.72v20.37l-4.41-2.54v-14.26L41.83 157v14.26l-4.41-2.54"/>
    <path class="d" d="M91.84 199.65l3.58 2.07v-19.41l-57.58-33.24v19.41l3.58 2.06V157a.42.42 0 0 1 .2-.36.45.45 0 0 1 .42 0l49.59 28.63a.43.43 0 0 1 .21.36v14zm4 3.21a.37.37 0 0 1-.21-.06l-4.41-2.54a.42.42 0 0 1-.21-.36v-14l-48.76-28.17v13.53a.44.44 0 0 1-.21.37.45.45 0 0 1-.42 0l-4.41-2.55a.42.42 0 0 1-.21-.36v-20.38a.42.42 0 0 1 .21-.36.45.45 0 0 1 .42 0L96 181.71a.41.41 0 0 1 .21.36v20.37a.41.41 0 0 1-.21.36.37.37 0 0 1-.21.06z"/>
    <path class="j" d="M46.24 168.72l-4.41 2.54V157l4.41 2.55"/>
    <path class="d" d="M46.24 168.72zm-4-11v12.81l3.58-2.07v-8.68l-3.58-2.06zm-.42 14a.54.54 0 0 1-.21-.05.44.44 0 0 1-.21-.37V157a.41.41 0 0 1 .21-.36.45.45 0 0 1 .42 0l4.41 2.55a.41.41 0 0 1 .21.36v9.17a.41.41 0 0 1-.21.36L42 171.63a.46.46 0 0 1-.17.05z"/>
    <path class="e" d="M95.84 202.44v-20.37l58.41-33.73v20.38l-4.41 2.54V157l-49.59 28.63v14.27"/>
    <path class="d" d="M96.25 182.31v19.41l3.58-2.07v-14a.43.43 0 0 1 .21-.36l49.59-28.63a.45.45 0 0 1 .42 0 .42.42 0 0 1 .21.36v13.54l3.57-2.07v-19.4l-57.58 33.22zm-.41 20.55a.37.37 0 0 1-.21-.06.41.41 0 0 1-.21-.36v-20.37a.41.41 0 0 1 .21-.36L154 148a.45.45 0 0 1 .42 0 .44.44 0 0 1 .21.37v20.37a.42.42 0 0 1-.21.36l-4.41 2.54a.4.4 0 0 1-.42 0 .41.41 0 0 1-.21-.36v-13.55l-48.76 28.15v14a.43.43 0 0 1-.21.36L96 202.8a.37.37 0 0 1-.21.06z"/>
    <path class="k" d="M37.42 143.25L95.84 177v5.09l-58.42-33.74"/>
    <path class="d" d="M37.84 148.1l57.58 33.25v-4.13L37.84 144v4.12zm58 34.39a.37.37 0 0 1-.21-.06l-58.42-33.72a.44.44 0 0 1-.21-.37v-5.09a.41.41 0 0 1 .21-.36.4.4 0 0 1 .42 0L96 176.61a.44.44 0 0 1 .21.37v5.09a.41.41 0 0 1-.21.36.37.37 0 0 1-.21.06z"/>
    <path class="k" d="M154.25 143.25v5.1l-58.41 33.72V177"/>
    <path class="d" d="M96.25 177.22v4.13l57.58-33.25V144l-57.58 33.22zm-.41 5.27a.37.37 0 0 1-.21-.06.41.41 0 0 1-.21-.36V177a.44.44 0 0 1 .21-.37L154 142.89a.4.4 0 0 1 .42 0 .41.41 0 0 1 .21.36v5.1a.43.43 0 0 1-.21.36L96 182.43a.37.37 0 0 1-.21.06z"/>
    <path d="M95.84 109.53l-58.42 33.72L95.84 177l58.41-33.73" fill="#d29b6a" fill-rule="evenodd"/>
    <path class="d" d="M38.26 143.25l57.58 33.24 57.57-33.24L95.84 110l-57.58 33.25zm57.58 34.15a.37.37 0 0 1-.21-.06l-58.42-33.73a.41.41 0 0 1 0-.72l58.42-33.73a.43.43 0 0 1 .41 0l58.42 33.73a.41.41 0 0 1 0 .72L96 177.34a.36.36 0 0 1-.21 0z"/>
    <path class="f" d="M68.34 125.31a.59.59 0 0 0 0 1.11l8.64 5a2.08 2.08 0 0 0 1.91 0l11.51-6.65a.58.58 0 0 0 0-1.1l-8.63-5a2.16 2.16 0 0 0-1.92 0z"/>
    <path class="d" d="M68.55 125.67c-.14.08-.19.16-.19.19s0 .11.19.19l8.64 5a1.69 1.69 0 0 0 1.49 0l11.51-6.65c.14-.08.19-.16.19-.19s0-.11-.19-.19l-8.64-5a1.7 1.7 0 0 0-1.49 0l-11.51 6.65zm9.38 6.38a2.32 2.32 0 0 1-1.16-.29l-8.64-5a1.09 1.09 0 0 1-.6-.92 1.07 1.07 0 0 1 .6-.91l11.52-6.65a2.52 2.52 0 0 1 2.33 0l8.63 5a1 1 0 0 1 0 1.82l-11.51 6.66a2.38 2.38 0 0 1-1.16.29z"/>
    <path class="e" d="M77.93 130.85c0 .61.43.85 1 .55l11.51-6.65a2.11 2.11 0 0 0 1-1.65v-10c0-.6-.43-.85-1-.55l-11.51 6.65a2.13 2.13 0 0 0-1 1.66v10z"/>
    <path class="d" d="M90.83 112.86a.53.53 0 0 0-.22.07l-11.51 6.65a1.71 1.71 0 0 0-.75 1.3v10c0 .16 0 .24.07.25s.12 0 .26-.06l11.51-6.65a1.71 1.71 0 0 0 .75-1.29v-10c0-.15 0-.24-.07-.25M78.46 132a.93.93 0 0 1-.46-.12 1.09 1.09 0 0 1-.49-1v-10a2.57 2.57 0 0 1 1.17-2l11.51-6.65a1.09 1.09 0 0 1 1.1-.06 1.08 1.08 0 0 1 .49 1v10a2.57 2.57 0 0 1-1.17 2l-11.51 6.59a1.24 1.24 0 0 1-.64.19"/>
    <path class="c" d="M70.64 118.14c1.44 2.2 4.57 3 4.67 3.9.26 2.55-2.46 1.82-2.46 1.82C68.94 122.68 67 118 67 118"/>
    <path class="d" d="M73.64 124.38a3.69 3.69 0 0 1-.9-.11c-4.06-1.24-6-5.9-6.14-6.1a.44.44 0 0 1 .23-.55.42.42 0 0 1 .55.23s1.92 4.5 5.59 5.61a2 2 0 0 0 1.61-.19 1.29 1.29 0 0 0 .31-1.19c0-.2-.8-.67-1.31-1a9.28 9.28 0 0 1-3.29-2.75.42.42 0 0 1 .12-.58.43.43 0 0 1 .58.12 8.85 8.85 0 0 0 3 2.49c1 .57 1.66 1 1.73 1.6a2.13 2.13 0 0 1-.6 1.92 2.28 2.28 0 0 1-1.49.46"/>
    <path class="m" d="M97.41 132.05c-2.32-1.34-2.32-3.54 0-4.87a9.36 9.36 0 0 1 8.44 0c2.32 1.33 2.32 3.53 0 4.87a9.36 9.36 0 0 1-8.44 0"/>
    <path class="d" d="M101.63 126.6a8.22 8.22 0 0 0-4 .94 2.57 2.57 0 0 0-1.53 2.07 2.6 2.6 0 0 0 1.53 2.08 9 9 0 0 0 8 0 2.17 2.17 0 0 0 0-4.15 8.19 8.19 0 0 0-4-.94m0 6.87a9 9 0 0 1-4.42-1.06 3 3 0 0 1 0-5.59 9.79 9.79 0 0 1 8.85 0 3 3 0 0 1 0 5.59 9 9 0 0 1-4.43 1.06"/>
    <path class="c" d="M100.11 129.47a.93.93 0 0 1 0-1.76 3.35 3.35 0 0 1 3 0 .93.93 0 0 1 0 1.76 3.35 3.35 0 0 1-3 0"/>
    <path class="n" d="M101.63 127.76a2.8 2.8 0 0 0-1.32.31c-.26.16-.42.35-.42.52s.16.37.42.52a3 3 0 0 0 2.64 0c.27-.15.42-.34.42-.52s-.15-.36-.42-.52a2.73 2.73 0 0 0-1.31-.31m0 2.5a3.56 3.56 0 0 1-1.74-.42 1.34 1.34 0 0 1 0-2.49 3.73 3.73 0 0 1 3.47 0 1.34 1.34 0 0 1 0 2.49 3.52 3.52 0 0 1-1.73.42"/>
    <path class="c" d="M99.6 122.64a1.24 1.24 0 0 1 0-2.35 4.49 4.49 0 0 1 4.07 0 1.24 1.24 0 0 1 0 2.35 4.55 4.55 0 0 1-4.07 0"/>
    <path class="d" d="M101.63 120.22a3.68 3.68 0 0 0-1.82.43 1 1 0 0 0-.63.81c0 .29.22.58.63.82a4.11 4.11 0 0 0 3.65 0c.4-.24.63-.53.63-.82a1.06 1.06 0 0 0-.63-.81 3.7 3.7 0 0 0-1.83-.43m0 3.32a4.61 4.61 0 0 1-2.24-.54 1.65 1.65 0 0 1 0-3.08 4.88 4.88 0 0 1 4.49 0 1.65 1.65 0 0 1 0 3.08 4.62 4.62 0 0 1-2.25.54"/>
    <path class="c" d="M98.75 121.46a1.44 1.44 0 0 0 .84 1.18 4.58 4.58 0 0 0 4.08 0 1.44 1.44 0 0 0 .84-1.18l-.72 7.13a1.09 1.09 0 0 1-.63.89 3.43 3.43 0 0 1-3.06 0 1.09 1.09 0 0 1-.63-.89l-.72-7.13z"/>
    <path class="d" d="M99.33 123l.56 5.59a.69.69 0 0 0 .42.56 3 3 0 0 0 2.64 0c.27-.15.42-.34.42-.52l.57-5.63h-.06a4.88 4.88 0 0 1-4.49 0h-.06m2.3 7.3a3.58 3.58 0 0 1-1.74-.42 1.51 1.51 0 0 1-.84-1.25l-.69-6.86a1.23 1.23 0 0 1 0-.27.42.42 0 0 1 .83 0v.17a1.22 1.22 0 0 0 .61.69 4.13 4.13 0 0 0 3.66 0 1.25 1.25 0 0 0 .62-.69v-.17a.45.45 0 0 1 .44-.38.43.43 0 0 1 .4.42 2.45 2.45 0 0 1 0 .27l-.7 6.9a1.49 1.49 0 0 1-.84 1.21 3.56 3.56 0 0 1-1.74.42"/>
    <path d="M84.47 163.88c-2.32-1.34-2.32-3.53 0-4.87a9.36 9.36 0 0 1 8.44 0c2.32 1.34 2.32 3.53 0 4.87a9.36 9.36 0 0 1-8.44 0" fill="#b4baeb" fill-rule="evenodd"/>
    <path class="d" d="M84.68 163.52a9 9 0 0 0 8 0 2.17 2.17 0 0 0 0-4.15 9 9 0 0 0-8 0 2.17 2.17 0 0 0 0 4.15m4 1.78a9 9 0 0 1-4.43-1.06 3 3 0 0 1 0-5.6 9.81 9.81 0 0 1 8.86 0 3 3 0 0 1 0 5.6 9.12 9.12 0 0 1-4.43 1"/>
    <path class="c" d="M87.16 161.3a.93.93 0 0 1 0-1.76 3.43 3.43 0 0 1 3.06 0 .94.94 0 0 1 0 1.77 3.43 3.43 0 0 1-3.06 0"/>
    <path class="n" d="M87.37 160.94a3 3 0 0 0 2.64 0c.27-.15.42-.34.42-.52s-.15-.36-.42-.52a3 3 0 0 0-2.64 0c-.27.16-.42.35-.42.52s.15.37.42.52m1.32 1.15a3.58 3.58 0 0 1-1.74-.42 1.34 1.34 0 0 1 0-2.49 3.75 3.75 0 0 1 3.48 0 1.34 1.34 0 0 1 0 2.49 3.56 3.56 0 0 1-1.74.42"/>
    <path class="c" d="M86.65 154.47a1.24 1.24 0 0 1 0-2.35 4.51 4.51 0 0 1 4.08 0 1.24 1.24 0 0 1 0 2.35 4.57 4.57 0 0 1-4.08 0"/>
    <path class="d" d="M88.69 152.05a3.72 3.72 0 0 0-1.83.43.84.84 0 0 0 0 1.63 4.13 4.13 0 0 0 3.66 0 .84.84 0 0 0 0-1.63 3.72 3.72 0 0 0-1.83-.43m0 3.33a4.63 4.63 0 0 1-2.25-.55 1.65 1.65 0 0 1 0-3.08 5 5 0 0 1 4.5 0 1.65 1.65 0 0 1 0 3.08 4.52 4.52 0 0 1-2.25.55"/>
    <path class="c" d="M85.81 153.29a1.43 1.43 0 0 0 .84 1.18 4.57 4.57 0 0 0 4.08 0 1.44 1.44 0 0 0 .84-1.18l-.72 7.13a1.07 1.07 0 0 1-.63.88 3.37 3.37 0 0 1-3.06 0 1.07 1.07 0 0 1-.63-.88l-.72-7.13z"/>
    <path class="d" d="M86.39 154.79l.56 5.59a.67.67 0 0 0 .42.56 3 3 0 0 0 2.64 0c.27-.15.42-.34.42-.52l.57-5.63h-.06a4.9 4.9 0 0 1-4.5 0h-.06m2.31 7.29a3.56 3.56 0 0 1-1.74-.42 1.51 1.51 0 0 1-.84-1.25l-.69-6.86a1.24 1.24 0 0 1 0-.27.43.43 0 0 1 .4-.42.43.43 0 0 1 .44.38v.17a1.25 1.25 0 0 0 .62.69 4.13 4.13 0 0 0 3.66 0 1.19 1.19 0 0 0 .61-.69v-.17a.44.44 0 0 1 .44-.38.42.42 0 0 1 .39.42 1.23 1.23 0 0 1 0 .27l-.7 6.9a1.47 1.47 0 0 1-.83 1.21 3.58 3.58 0 0 1-1.74.42"/>
    <path class="c" d="M96.17 156l17.71-10.22 13.69 7.91a8.11 8.11 0 0 1 2.84 3 8.3 8.3 0 0 1 1.18 4v11.18a8.9 8.9 0 0 0 4 6.95l4.84 2.79-17.7 10.19-4.84-2.8a8.93 8.93 0 0 1-4-6.95v-11.17a8.92 8.92 0 0 0-4-6.95L96.17 156z"/>
    <path class="d" d="M97 156l13.07 7.55a9.35 9.35 0 0 1 4.22 7.31v11.18a8.5 8.5 0 0 0 3.8 6.59l4.63 2.67 16.87-9.74-4.21-2.43a9.35 9.35 0 0 1-4.22-7.31v-11.17a7.75 7.75 0 0 0-1.12-3.74 7.84 7.84 0 0 0-2.68-2.84l-13.49-7.79L97 156zm25.72 36.2a.42.42 0 0 1-.21-.06l-4.84-2.79a9.36 9.36 0 0 1-4.22-7.31v-11.17a8.54 8.54 0 0 0-3.8-6.58L96 156.38a.41.41 0 0 1 0-.72l17.71-10.22a.4.4 0 0 1 .42 0l13.7 7.9a9.36 9.36 0 0 1 4.22 7.31v11.19a8.54 8.54 0 0 0 3.8 6.58l4.84 2.8a.41.41 0 0 1 0 .72l-17.71 10.22a.37.37 0 0 1-.21.06z"/>
    <path class="p" d="M55.81 148.8l24.42-14 15.07 8.7L71 157.52"/>
    <path class="d" d="M56.65 148.8L71 157l23.5-13.57-14.24-8.22-23.61 13.59zM71 157.94a.36.36 0 0 1-.2-.06l-15.16-8.71a.42.42 0 0 1-.21-.37.4.4 0 0 1 .21-.36L80 134.4a.45.45 0 0 1 .42 0l15.07 8.71a.41.41 0 0 1 0 .72l-24.33 14a.37.37 0 0 1-.21.06z"/>
    <path class="j" d="M84.65 120.77c.57-.33 1-.06 1 .61a2.34 2.34 0 0 1-1 1.81c-.58.34-1.05.06-1.05-.6a2.32 2.32 0 0 1 1.05-1.82"/>
    <path class="d" d="M85.11 121.05a.54.54 0 0 0-.25.08 1.92 1.92 0 0 0-.84 1.46c0 .19 0 .29.1.31s.15 0 .32-.07a1.92 1.92 0 0 0 .84-1.45.41.41 0 0 0-.1-.32h-.07m-.93 2.7a1 1 0 0 1-.48-.12 1.15 1.15 0 0 1-.52-1 2.73 2.73 0 0 1 1.26-2.18 1 1 0 0 1 1.67 1 2.76 2.76 0 0 1-1.25 2.18 1.38 1.38 0 0 1-.68.19"/>
    <path class="c" d="M41.83 112.5a4.07 4.07 0 1 0 3.66-4.45 4.07 4.07 0 0 0-3.66 4.45"/>
    <path class="d" d="M45.89 108.45h-.36a3.68 3.68 0 0 0-2.47 1.32 3.67 3.67 0 1 0 2.83-1.33m0 8.15a4.49 4.49 0 1 1 .44 0h-.44"/>
    <path d="M28.1 59.22c0-2.83-2.05-4-4.55-2.53A10.09 10.09 0 0 0 19 64.56c0 2.89 2 4 4.54 2.53a10.23 10.23 0 0 0 4.55-7.87" fill="#40cebb" fill-rule="evenodd"/>
    <path class="c" d="M22.44 65.74a.45.45 0 0 1-.37-.22l-1.13-2.07a.42.42 0 1 1 .73-.4l.75 1.36 3-6.09a.41.41 0 0 1 .56-.19.42.42 0 0 1 .19.56l-3.35 6.81a.41.41 0 0 1-.37.23z"/>
    <path d="M28.1 75.61c0-2.83-2.05-4-4.55-2.53A10.09 10.09 0 0 0 19 81c0 2.89 2 4 4.54 2.54a10.26 10.26 0 0 0 4.55-7.87" fill="#ffab7d" fill-rule="evenodd"/>
    <path d="M28.1 92c0-2.84-2.05-4-4.55-2.54A10.09 10.09 0 0 0 19 97.34c0 2.89 2 4 4.54 2.54A10.26 10.26 0 0 0 28.1 92" fill="#f9d28c" fill-rule="evenodd"/>
    <path class="c" d="M23.58 96.39a.41.41 0 0 1-.41-.42v-1.14a.44.44 0 0 1 .11-.29l.16-.17c.45-.47 1.28-1.35 1.28-1.9s-.1-.69-.44-.69c-.6 0-1.37 1.14-1.64 1.7a.43.43 0 0 1-.56.18.41.41 0 0 1-.19-.56c.11-.22 1.11-2.16 2.39-2.16.85 0 1.28.52 1.28 1.53S24.65 94.32 24 95v1a.42.42 0 0 1-.42.42m0 1.83a.41.41 0 0 1-.41-.42v-.17a.41.41 0 0 1 .41-.42.42.42 0 0 1 .42.42v.17a.42.42 0 0 1-.42.42"/>
    <path class="c" d="M23.58 98.22a.41.41 0 0 1-.41-.42v-.17a.41.41 0 0 1 .41-.42.42.42 0 0 1 .42.42v.17a.42.42 0 0 1-.42.42m0-18.63a.41.41 0 0 1-.41-.42v-4a.41.41 0 0 1 .41-.42.42.42 0 0 1 .42.42v4a.42.42 0 0 1-.42.42m0 2a.41.41 0 0 1-.41-.42V81a.41.41 0 0 1 .41-.42.42.42 0 0 1 .42.42v.17a.42.42 0 0 1-.42.42M32.08 55l19.44-11.19"/>
    <path class="m" d="M32.08 55.87a.82.82 0 0 1-.72-.42.83.83 0 0 1 .3-1.14L51.1 43.09a.82.82 0 0 1 1.14.3.84.84 0 0 1-.3 1.15L32.5 55.76a.91.91 0 0 1-.42.11"/>
    <path class="c" d="M32.08 59.18l22.41-12.94"/>
    <path class="m" d="M32.08 59.6a.43.43 0 0 1-.36-.21.41.41 0 0 1 .15-.57l22.41-12.94a.42.42 0 0 1 .42.72L32.29 59.54a.37.37 0 0 1-.21.06"/>
    <path class="c" d="M32.08 62.31l16.34-9.43"/>
    <path class="m" d="M32.08 62.73a.43.43 0 0 1-.36-.21.41.41 0 0 1 .15-.57l16.34-9.44a.44.44 0 0 1 .58.16.43.43 0 0 1-.16.57l-16.34 9.43a.39.39 0 0 1-.21.06"/>
    <path class="c" d="M32.08 71.33l19.44-11.22"/>
    <path class="t" d="M32.08 72.17a.82.82 0 0 1-.72-.42.83.83 0 0 1 .3-1.14L51.1 59.39a.82.82 0 0 1 1.14.3.83.83 0 0 1-.3 1.14L32.5 72.05a.81.81 0 0 1-.42.12"/>
    <path class="c" d="M32.08 75.48l22.41-12.94"/>
    <path class="t" d="M32.08 75.9a.43.43 0 0 1-.36-.21.41.41 0 0 1 .15-.57l22.41-12.94a.42.42 0 1 1 .42.72L32.29 75.84a.37.37 0 0 1-.21.06"/>
    <path class="c" d="M32.08 78.61l16.34-9.43"/>
    <path class="t" d="M32.08 79a.43.43 0 0 1-.36-.21.41.41 0 0 1 .15-.57l16.34-9.44a.44.44 0 0 1 .58.16.43.43 0 0 1-.16.57L32.29 79a.39.39 0 0 1-.21.06"/>
    <path class="c" d="M32.08 87.63l19.44-11.22"/>
    <path class="u" d="M32.08 88.46a.83.83 0 0 1-.72-.41.84.84 0 0 1 .3-1.15L51.1 75.68a.84.84 0 0 1 .84 1.45L32.5 88.35a.8.8 0 0 1-.42.11"/>
    <path class="c" d="M32.08 91.78l22.41-12.94"/>
    <path class="u" d="M32.08 92.19a.42.42 0 0 1-.36-.2.41.41 0 0 1 .15-.57l22.41-12.94a.42.42 0 0 1 .42.72L32.29 92.14a.36.36 0 0 1-.21 0"/>
    <path class="c" d="M32.08 94.91l16.34-9.44"/>
    <path class="u" d="M32.08 95.32a.42.42 0 0 1-.21-.78l16.34-9.43a.42.42 0 1 1 .42.72l-16.34 9.44a.38.38 0 0 1-.21 0"/>
    <path class="c" d="M55.76 90.08l-35.86 20.7"/>
    <path class="v" d="M19.9 111.2a.42.42 0 0 1-.21-.78l35.86-20.71a.43.43 0 0 1 .57.16.41.41 0 0 1-.15.57l-35.86 20.7a.42.42 0 0 1-.21.06"/>
    <path class="c" d="M48 97.63l-28.1 16.2"/>
    <path class="v" d="M19.9 114.25a.39.39 0 0 1-.36-.21.41.41 0 0 1 .15-.57l28.07-16.2a.42.42 0 0 1 .42.72L20.11 114.2a.41.41 0 0 1-.21 0"/>
    <path class="c" d="M74.28 79.38l-15.41 8.9"/>
    <path class="v" d="M58.87 88.7a.42.42 0 0 1-.21-.78L74.07 79a.42.42 0 1 1 .42.72l-15.41 8.9a.42.42 0 0 1-.21.06"/>
    <path class="c" d="M74.28 82.44L50.85 96"/>
    <path class="v" d="M50.85 96.39a.44.44 0 0 1-.37-.21.42.42 0 0 1 .16-.57l23.43-13.53a.42.42 0 1 1 .42.72L51.06 96.33a.42.42 0 0 1-.21.06"/>
    <path class="c" d="M60.85 78.3l13.43-7.75"/>
    <path class="v" d="M60.85 78.72a.42.42 0 0 1-.21-.78l13.43-7.76a.42.42 0 0 1 .57.16.41.41 0 0 1-.15.57l-13.43 7.75a.42.42 0 0 1-.21.06"/>
    <path class="c" d="M63.13 73.89l11.15-6.44"/>
    <path class="v" d="M63.13 74.31a.44.44 0 0 1-.37-.21.42.42 0 0 1 .16-.57l11.15-6.44a.42.42 0 1 1 .42.72l-11.16 6.44a.37.37 0 0 1-.21.06"/>
    <path class="c" d="M60.85 72.11l13.43-7.75"/>
    <path class="v" d="M60.85 72.53a.39.39 0 0 1-.36-.21.41.41 0 0 1 .15-.57L74.07 64a.42.42 0 1 1 .42.72l-13.43 7.76a.54.54 0 0 1-.21 0"/>
    <path class="c" d="M63.57 40.29l10.71-6.18"/>
    <path class="v" d="M63.57 40.71a.44.44 0 0 1-.37-.21.42.42 0 0 1 .16-.57l10.71-6.19a.42.42 0 0 1 .57.16.41.41 0 0 1-.15.57l-10.71 6.18a.42.42 0 0 1-.21.06"/>
    <path class="c" d="M60.85 38.77L74.28 31"/>
    <path class="v" d="M60.85 39.19a.42.42 0 0 1-.21-.78l13.43-7.76a.42.42 0 0 1 .57.16.41.41 0 0 1-.15.57l-13.43 7.75a.42.42 0 0 1-.21.06"/>
    <path class="c" d="M60.85 45l13.43-7.8"/>
    <path class="v" d="M60.85 45.37a.39.39 0 0 1-.36-.21.41.41 0 0 1 .15-.57l13.43-7.75a.42.42 0 1 1 .42.72l-13.43 7.75a.42.42 0 0 1-.21.06"/>
    <path class="c" d="M63.57 46.48l10.71-6.19"/>
    <path class="v" d="M63.57 46.89a.42.42 0 0 1-.37-.21.43.43 0 0 1 .16-.57l10.71-6.18a.42.42 0 1 1 .42.72l-10.71 6.19a.41.41 0 0 1-.21 0"/>
    <path class="c" d="M60.85 58.4l13.43-7.76"/>
    <path class="v" d="M60.85 58.82a.42.42 0 0 1-.21-.78l13.43-7.76a.42.42 0 1 1 .42.72l-13.43 7.76a.42.42 0 0 1-.21.06"/>
    <path class="c" d="M63.57 53.74l10.71-6.19"/>
    <path class="v" d="M63.57 54.15a.42.42 0 0 1-.37-.21.43.43 0 0 1 .16-.57l10.71-6.18a.42.42 0 1 1 .42.72L63.77 54.1a.36.36 0 0 1-.21 0"/>
    <path class="c" d="M63.57 59.92l10.71-6.18"/>
    <path class="v" d="M63.57 60.34a.44.44 0 0 1-.37-.21.42.42 0 0 1 .16-.57l10.71-6.19a.42.42 0 0 1 .57.16.41.41 0 0 1-.15.57l-10.71 6.18a.42.42 0 0 1-.21.06"/>
    <path class="c" d="M60.85 64.58l13.43-7.75"/>
    <path class="v" d="M60.85 65a.39.39 0 0 1-.36-.21.41.41 0 0 1 .15-.57l13.43-7.75a.42.42 0 1 1 .42.72l-13.43 7.75a.42.42 0 0 1-.21.06"/>
    <path class="f" d="M86.38 6.29l-3.06-2L4.88 49.54l3.06 2"/>
    <path class="d" d="M5.68 49.56L8 51.08 85.58 6.26 83.3 4.74 5.68 49.56zM7.94 52a.39.39 0 0 1-.23-.07l-3.06-2a.4.4 0 0 1-.18-.36.39.39 0 0 1 .21-.35L83.11 3.89a.41.41 0 0 1 .44 0l3.06 2a.4.4 0 0 1 .18.36.39.39 0 0 1-.21.35L8.15 51.94a.5.5 0 0 1-.21.05z"/>
    <path class="j" d="M7.94 51.58l-3.05-2V132l3.05 2"/>
    <path class="d" d="M5.3 131.73l2.22 1.48V51.8L5.3 50.32v81.41zm2.64 2.68a.39.39 0 0 1-.23-.07l-3.06-2a.44.44 0 0 1-.18-.35V49.54a.4.4 0 0 1 .22-.37.44.44 0 0 1 .43 0l3.05 2a.42.42 0 0 1 .19.35V134a.42.42 0 0 1-.22.37.35.35 0 0 1-.2 0z"/>
    <path class="p" d="M116.89 148l17.89-10.33-14.06-8.12-17.89 10.33"/>
    <path class="d" d="M103.67 139.83l13.22 7.63 17-9.84-13.17-7.62-17 9.84zm13.22 8.53a.41.41 0 0 1-.21-.05l-14.06-8.12a.42.42 0 0 1 0-.72l17.89-10.33a.45.45 0 0 1 .42 0l14.07 8.12a.41.41 0 0 1 0 .72l-17.9 10.33a.36.36 0 0 1-.21.05z"/>
    <path class="w" d="M124.23 136c2.29 1.33 2.29 3.49 0 4.81a9.19 9.19 0 0 1-8.33 0c-2.29-1.32-2.29-3.48 0-4.81a9.26 9.26 0 0 1 8.33 0"/>
    <path class="x" d="M118.43 137.3c1.71 1 1.71 2.62 0 3.61a6.93 6.93 0 0 1-6.24 0c-1.72-1-1.72-2.62 0-3.61a6.93 6.93 0 0 1 6.24 0"/>
    <path class="y" d="M116.09 155.23a.54.54 0 0 0 0-1l-5-2.85a2 2 0 0 0-1.76 0l-7.14 4.12a.54.54 0 0 0 0 1l4.94 2.85a2 2 0 0 0 1.76 0l7.15-4.12z"/>
    <path class="c" d="M110.56 161.1l4.45-2.57"/>
    <path class="j" d="M110.56 161.52a.42.42 0 0 1-.37-.21.42.42 0 0 1 .16-.57l4.45-2.57a.42.42 0 0 1 .42.72l-4.45 2.57a.42.42 0 0 1-.21.06"/>
    <path class="c" d="M111.32 142.06h8.19l13.79 8-14.06 8.12-17.89-10.33"/>
    <path class="d" d="M102.19 147.81l17 9.84 13.27-7.65-13.06-7.55h-8zm17 10.75a.39.39 0 0 1-.21-.06l-17.89-10.33a.41.41 0 0 1 0-.72l10-5.76a.54.54 0 0 1 .21-.05h8.19a.54.54 0 0 1 .21.05l13.79 8a.41.41 0 0 1 .21.36.42.42 0 0 1-.21.36l-14.06 8.12a.54.54 0 0 1-.21.05z"/>
    <path class="f" d="M111.32 142.06l4.11 2.4 4.08-2.4"/>
    <path class="d" d="M112.86 142.47l2.57 1.51 2.54-1.51zm2.57 2.41a.39.39 0 0 1-.21-.06l-4.11-2.4a.42.42 0 0 1-.19-.47.41.41 0 0 1 .4-.31h8.19a.41.41 0 0 1 .4.31.42.42 0 0 1-.19.47l-4.08 2.4a.39.39 0 0 1-.21.06z"/>
    <path class="c" d="M124.73 150.89l-5.49 3.17"/>
    <path class="j" d="M119.24 154.48a.41.41 0 0 1-.36-.21.41.41 0 0 1 .15-.57l5.49-3.17a.41.41 0 0 1 .57.15.42.42 0 0 1-.15.58l-5.49 3.17a.54.54 0 0 1-.21 0"/>
    <path class="c" d="M124.61 148.52l-7.45 4.3"/>
    <path class="j" d="M117.16 153.24a.39.39 0 0 1-.36-.21.41.41 0 0 1 .15-.57l7.45-4.3a.41.41 0 0 1 .57.15.42.42 0 0 1-.16.57l-7.44 4.31a.54.54 0 0 1-.21.05"/>
    <path class="c" d="M120.38 148.52l-5.3 3.07"/>
    <path class="j" d="M115.08 152a.39.39 0 0 1-.36-.21.41.41 0 0 1 .15-.57l5.3-3.06a.42.42 0 0 1 .42.73l-5.3 3.06a.41.41 0 0 1-.21.05"/>
    <path class="c" d="M114.46 147.06l-3.54 2.05"/>
    <path class="j" d="M110.92 149.53a.42.42 0 0 1-.21-.78l3.54-2.05a.41.41 0 0 1 .57.16.41.41 0 0 1-.15.57l-3.54 2a.42.42 0 0 1-.21.06"/>
    <path class="c" d="M112 146.06l-3.13 1.81"/>
    <path class="j" d="M108.84 148.29a.42.42 0 0 1-.21-.78l3.14-1.81a.41.41 0 0 1 .57.15.42.42 0 0 1-.16.57l-3.13 1.81a.42.42 0 0 1-.21.06"/>
    <path class="c" d="M117.14 159.82l-4.78 2.75"/>
    <path class="j" d="M112.36 163a.41.41 0 0 1-.36-.21.43.43 0 0 1 .16-.57l4.77-2.75a.41.41 0 0 1 .57.15.42.42 0 0 1-.15.57l-4.78 2.76a.38.38 0 0 1-.21.05"/>
    <path class="c" d="M122.12 159.18L113.7 164"/>
    <path class="j" d="M113.7 164.46a.42.42 0 0 1-.36-.21.41.41 0 0 1 .15-.57l8.42-4.87a.42.42 0 0 1 .57.16.41.41 0 0 1-.15.57l-8.42 4.86a.39.39 0 0 1-.21.06"/>
    <path class="c" d="M120.91 162.25l-5.91 3.39"/>
    <path class="j" d="M115 166.06a.39.39 0 0 1-.36-.21.41.41 0 0 1 .15-.57l5.88-3.39a.41.41 0 0 1 .57.15.42.42 0 0 1-.16.57l-5.87 3.4a.54.54 0 0 1-.21.05"/>
    <path class="c" d="M124.05 163.06l-8.42 4.86"/>
    <path class="j" d="M115.63 168.34a.43.43 0 0 1-.36-.21.42.42 0 0 1 .15-.57l8.42-4.86a.42.42 0 1 1 .42.72l-8.42 4.86a.39.39 0 0 1-.21.06"/>
    <path class="c" d="M127 156.38l-3.28 1.89"/>
    <path class="j" d="M123.69 158.69a.43.43 0 0 1-.36-.21.42.42 0 0 1 .16-.57l3.27-1.89a.42.42 0 0 1 .42.72l-3.28 1.89a.37.37 0 0 1-.21.06"/>
    <path class="y" d="M117.19 169.84a2 2 0 0 0-.88 1.53v8.91c0 .56.39.79.88.51l11.24-6.5a2 2 0 0 0 .89-1.52v-8.91c0-.56-.4-.79-.89-.51l-11.24 6.49z"/>
    <path class="c" d="M128.28 158l-5.76 3.33"/>
    <path class="j" d="M122.52 161.73a.41.41 0 0 1-.36-.21.43.43 0 0 1 .16-.57l5.75-3.32a.42.42 0 1 1 .42.72l-5.75 3.33a.54.54 0 0 1-.21 0"/>
    <path class="c" d="M129.05 160.17l-3.43 2"/>
    <path class="j" d="M125.62 162.57a.42.42 0 0 1-.37-.21.43.43 0 0 1 .16-.57l3.43-2a.42.42 0 0 1 .57.15.42.42 0 0 1-.15.58l-3.43 2a.41.41 0 0 1-.21 0"/>
    <path class="c" d="M125 178.45l-8.18 4.73"/>
    <path class="j" d="M116.86 183.59a.42.42 0 0 1-.21-.78l8.18-4.72a.42.42 0 0 1 .42.72l-8.18 4.73a.41.41 0 0 1-.21.05"/>
    <path class="c" d="M129.84 175.68l-2.91 1.68"/>
    <path class="j" d="M126.93 177.78a.43.43 0 0 1-.36-.21.42.42 0 0 1 .16-.57l2.9-1.68a.42.42 0 1 1 .42.72l-2.91 1.68a.37.37 0 0 1-.21.06"/>
    <path class="c" d="M121.49 183.11l-3.58 2.06"/>
    <path class="j" d="M117.91 185.59a.42.42 0 0 1-.21-.78l3.58-2.06a.41.41 0 0 1 .57.15.43.43 0 0 1-.16.57l-3.57 2.06a.42.42 0 0 1-.21.06"/>
    <path class="c" d="M130.89 177.68l-7.76 4.48"/>
    <path class="j" d="M123.14 182.57a.42.42 0 0 1-.37-.21.43.43 0 0 1 .16-.57l7.75-4.47a.42.42 0 0 1 .42.72l-7.76 4.48a.46.46 0 0 1-.21 0"/>
    <path class="y" d="M135.35 182.07a.54.54 0 0 0 0-1l-2.22-1.28a2 2 0 0 0-1.77 0l-11.42 6.6a.53.53 0 0 0 0 1l2.23 1.29a2 2 0 0 0 1.76 0l11.42-6.6z"/>
    <path class="w" d="M65.93 144.27c-3.34 1.93-3.34 5.09 0 7a13.51 13.51 0 0 0 12.17 0c3.35-1.93 3.35-5.09 0-7a13.43 13.43 0 0 0-12.16 0"/>
    <path class="x" d="M80.6 141.46c-1.72 1-1.72 2.61 0 3.6a6.93 6.93 0 0 0 6.24 0c1.72-1 1.72-2.61 0-3.6a6.93 6.93 0 0 0-6.24 0"/>
    <path d="M66.27 132.12a1.36 1.36 0 0 1 1.34-.14l12.55 7.3-12 6.91L55 138.61l11.23-6.49z" fill="#ff8f52" fill-rule="evenodd"/>
    <path class="d" d="M55.88 138.61l12.34 7.12 11.14-6.43-11.91-6.94a1 1 0 0 0-.94.14l-10.6 6.12zm12.34 8a.46.46 0 0 1-.21 0L54.83 139a.41.41 0 0 1-.21-.36.44.44 0 0 1 .21-.37l11.23-6.48a1.82 1.82 0 0 1 1.7-.18h.07l12.58 7.32a.4.4 0 0 1 .2.36.42.42 0 0 1-.21.36l-12 6.91a.42.42 0 0 1-.21.06z"/>
    <path class="c" d="M68.22 146.21l11.22-6.42c1.08-.61 2-.11 2 1.13a4.31 4.31 0 0 1-2 3.38l-11.22 6.48c1.88-2.83 0-4.57 0-4.57"/>
    <path class="d" d="M68.85 146.34a3.67 3.67 0 0 1 .37 3.37l10-5.78a3.89 3.89 0 0 0 1.73-3 1 1 0 0 0-.36-.9 1 1 0 0 0-1 .13l-10.8 6.18zm-.63 4.86a.44.44 0 0 1-.31-.13.42.42 0 0 1 0-.52c1.65-2.48.13-4 .06-4a.42.42 0 0 1-.13-.35.44.44 0 0 1 .21-.32l11.23-6.42a1.6 1.6 0 0 1 2.57 1.49 4.71 4.71 0 0 1-2.16 3.74l-11.22 6.48a.42.42 0 0 1-.21.06z"/>
    <path class="f" d="M79.44 139.79a3.23 3.23 0 0 1-.54.25l-.17.1 1.47-.84.58.34a1.4 1.4 0 0 0-1.33.15"/>
    <path class="d" d="M78.74 140.56a.42.42 0 0 1-.37-.21.43.43 0 0 1 .16-.57l.16-.1 1.29-.74a.4.4 0 0 1 .42 0l.58.34a.43.43 0 0 1 .2.26.46.46 0 0 1-.06.33.44.44 0 0 1-.55.15 1 1 0 0 0-.93.14l-.27.14a1.33 1.33 0 0 0-.28.12l-.16.09a.5.5 0 0 1-.21.05"/>
    <path class="f" d="M55 138.61l13.18 7.6s1.88 1.74 0 4.57l-13.17-7.61c1.85-2.77 0-4.56 0-4.56"/>
    <path class="d" d="M55.63 143l12.44 7.19c1.22-2.13.1-3.45-.11-3.67l-11.83-6.83a4.11 4.11 0 0 1-.5 3.31m12.58 8.17a.36.36 0 0 1-.2-.06l-13.17-7.61a.38.38 0 0 1-.2-.26.39.39 0 0 1 .06-.33c1.62-2.43.11-4 0-4a.41.41 0 0 1 0-.55.41.41 0 0 1 .54-.11l13.17 7.6.08.06s2.12 2 .06 5.1a.42.42 0 0 1-.35.19"/>
</svg>
