<svg height="512" viewBox="0 0 192 192" width="512" xmlns="http://www.w3.org/2000/svg" xmlns:xlink="http://www.w3.org/1999/xlink"><linearGradient id="New_Gradient_Swatch_1" gradientUnits="userSpaceOnUse" x1="39.824" x2="152.176" y1="117.214" y2="4.862"><stop offset="0" stop-color="#ff85a6"/><stop offset="1" stop-color="#ffdc68"/></linearGradient><path d="m187.828 120.976-86.482-47.176h.006a9.522 9.522 0 0 0 -6.966-1.59 10.013 10.013 0 0 0 -3.725 1.59l-86.492 47.177a8 8 0 0 0 1.3 14.612l15.251 5.083-11.875 23.75a8 8 0 0 0 10.733 10.733l76.222-38.113 68.311 37.951a8.068 8.068 0 0 0 11.646-8.934l-6.2-24.812 16.971-5.658a8 8 0 0 0 1.3-14.613z" fill="#ffdc68"/><path d="m101.346 73.8h.006a9.522 9.522 0 0 0 -6.966-1.59 10.013 10.013 0 0 0 -3.725 1.59l-66.773 36.421c5.5 8.095 14.693 18.063 29.943 30.617 4.6 3.787 9.175 7.333 13.4 10.491l28.569-14.287 27.577 15.321c4.6-3.41 9.679-7.319 14.789-11.525 15.249-12.554 24.439-22.522 29.942-30.617z" fill="#ffd342"/><path d="m96 8s-40 16-64 16v64c0 22.627 64 64 64 64s64-41.373 64-64v-64c-24 0-64-16-64-16z" fill="#fff6d9"/><path d="m56 80v-59.361c-8.434 1.966-16.914 3.361-24 3.361v64c0 22.627 64 64 64 64s7.62-4.926 17.6-12.307c-16.2-11.172-57.6-41.493-57.6-59.693z" fill="#ffedb4"/><path d="m160 16c-22.165 0-60.644-15.274-61.03-15.428a8 8 0 0 0 -5.941 0c-.385.155-38.829 15.428-61.029 15.428a8 8 0 0 0 -8 8v64c0 7.692 3.619 20.9 34.915 46.662a395.3 395.3 0 0 0 32.742 24.056 8.066 8.066 0 0 0 8.686 0 395.3 395.3 0 0 0 32.742-24.056c31.296-25.762 34.915-38.97 34.915-46.662v-64a8 8 0 0 0 -8-8zm-8 72c0 1.727-1.4 11.5-28.982 34.225-10.562 8.7-21.251 16.225-27.018 20.152-5.767-3.927-16.456-11.45-27.018-20.152-27.582-22.725-28.982-32.498-28.982-34.225v-56.449c20.905-2.174 47.2-11.631 56-14.972 8.8 3.341 35.1 12.8 56 14.972z" fill="url(#New_Gradient_Swatch_1)"/><path d="m99.062 40.609a8 8 0 0 0 -8.719 1.734l-24 24 11.314 11.314 10.343-10.344v36.687h16v-56a8 8 0 0 0 -4.938-7.391z" fill="#ffdc68"/></svg>